<?xml version="1.0" encoding="UTF-8"?>
<svg width="1000px" height="1468px" viewBox="0 0 1000 1468" version="1.1" xmlns="http://www.w3.org/2000/svg" xmlns:xlink="http://www.w3.org/1999/xlink">
    <title>svg01</title>
    <defs>
        <linearGradient x1="50%" y1="0%" x2="50%" y2="64.8380992%" id="linearGradient-1">
            <stop stop-color="#F5333F" stop-opacity="0.37651094" offset="0%"></stop>
            <stop stop-color="#F5333F" offset="100%"></stop>
        </linearGradient>
    </defs>
    <g id="svg01" stroke="none" stroke-width="1" fill="none" fill-rule="evenodd">
        <rect id="Rectangle" fill="url(#linearGradient-1)" x="-840.859069" y="0" width="2949.71814" height="1468"></rect>
        <g id="Logo-Horizontal-RGB" transform="translate(379.000000, 61.000000)" fill-rule="nonzero">
            <g id="Group-5">
                <polygon id="Path" fill="#FFFFFF" points="0 0 250 0 250 74 0 74"></polygon>
                <path d="M30.5509125,42.4331857 L17.4788136,42.4331857 L17.4788136,31.3163011 L30.5509125,31.3163011 L30.5509125,18.3408897 L41.753375,18.3408897 L41.753375,31.3086842 L41.7495359,31.3163011 L54.8254739,31.3163011 L54.8254739,42.4293772 L41.7495359,42.4293772 L41.753375,42.4255687 L41.753375,55.3933632 L30.5509125,55.3933632 L30.5509125,42.4255687 L30.5509125,42.4331857 Z M72.1551229,36.6709909 C72.1551229,28.03722 79.211369,21.0334684 87.9184234,21.0334684 C89.8571635,21.0334684 91.7152827,21.380038 93.4275165,22.0160502 C90.0915586,19.3909863 85.9571305,17.9652161 81.6990988,17.9714489 C71.2529369,17.9714489 62.783906,26.3729245 62.783906,36.7357347 C62.783906,47.0985449 71.2529369,55.5 81.6990988,55.5 C86.2752932,55.5 90.4752569,53.8852144 93.75,51.2002526 C91.945628,51.912434 89.9800143,52.304705 87.9222625,52.304705 C79.215208,52.3085134 72.1551229,45.3047619 72.1551229,36.6709909" id="Shape" fill="#F5333F"></path>
                <path d="M215.859166,55.5 C219.023967,55.5 221.893745,54.9440776 224.464667,53.8398481 C227.039421,52.7318109 229.192712,51.1287744 230.932203,49.0193153 L225.506829,44.0426673 C223.035525,46.9136639 219.978005,48.3453545 216.326606,48.3453545 C214.066033,48.3453545 212.046844,47.8541628 210.276701,46.8679716 C208.502726,45.8817805 207.119562,44.5110129 206.131041,42.7480534 C205.138688,40.9850939 204.644427,38.9822501 204.644427,36.7357143 C204.644427,34.4891785 205.142519,32.482527 206.131041,30.7195675 C207.119562,28.956608 208.502726,27.5820327 210.276701,26.5996492 C212.050676,25.6134581 214.066033,25.1222663 216.326606,25.1222663 C219.978005,25.1222663 223.039357,26.5387262 225.506829,29.3754537 L230.932203,24.3988057 C229.192712,22.3236158 227.047084,20.7358099 224.487656,19.6315805 C221.93206,18.5235433 219.073776,17.9714286 215.908975,17.9714286 C212.154126,17.9714286 208.77093,18.7748507 205.763219,20.381695 C202.751676,21.9885393 200.387654,24.2198443 198.66732,27.0679948 C196.946986,29.919953 196.084903,33.1450646 196.084903,36.7357143 C196.084903,40.3301716 196.946986,43.5514755 198.66732,46.4034337 C200.387654,49.2553919 202.751676,51.4828893 205.763219,53.0897336 C208.77093,54.6965779 212.134968,55.5 215.859166,55.5 M182.107668,31.7590663 C182.107668,33.7657178 181.448654,35.3192544 180.126794,36.4272916 C178.804934,37.5353287 176.873868,38.0874435 174.337429,38.0874435 L167.452262,38.0874435 L167.452262,25.4383044 L174.337429,25.4383044 C176.8777,25.4383044 178.804934,25.9828038 180.126794,27.0718025 C181.448654,28.1531859 182.107668,29.7181456 182.107668,31.7590663 M191.341532,54.8793469 L183.153662,43.216399 C185.552168,42.1807079 187.406604,40.6842866 188.709306,38.7309427 C190.012009,36.7775989 190.663361,34.4549093 190.663361,31.7590663 C190.663361,29.0632233 190.019672,26.7329183 188.736127,24.760536 C187.44875,22.7919614 185.613472,21.2688862 183.234123,20.198926 C180.850943,19.1289657 178.042469,18.5920817 174.808701,18.5920817 L159.003851,18.5920817 L159.003851,54.8793469 L167.456093,54.8793469 L167.456093,44.7699356 L175.230164,44.7699356 L182.272422,54.8793469 L191.341532,54.8793469 L191.341532,54.8793469 Z M151.697221,25.3278815 L151.697221,18.588274 L124.10291,18.588274 L124.10291,54.8755392 L132.555152,54.8755392 L132.555152,41.655247 L149.455806,41.655247 L149.455806,34.9156395 L132.555152,34.9156395 L132.555152,25.3240738 L151.697221,25.3240738 L151.697221,25.3278815 Z M106.991525,54.8793469 L115.443768,54.8793469 L115.443768,18.5920817 L106.991525,18.5920817 L106.991525,54.8793469 Z" id="Shape" fill="#333132"></path>
            </g>
        </g>
        <text id="Marzo-2022" font-family="Poppins-Regular, Poppins" font-size="26" font-weight="normal" fill="#FFFFFF">
            <tspan x="435.875" y="1064">Marzo 2022</tspan>
        </text>
        <text id="Percepciones-de-los" font-family="Poppins-Light, Poppins" font-size="31" font-weight="300" line-spacing="49" fill="#FFFFFF">
            <tspan x="175.4855" y="875">Percepciones de los migrantes, refugiados, </tspan>
            <tspan x="142.703" y="924">comunidades de acogida y pueblos indígenas.</tspan>
        </text>
        <text id="El-COVID-19-en-Améri" font-family="Poppins-Bold, Poppins" font-size="53" font-weight="bold" line-spacing="81" fill="#FFFFFF">
            <tspan x="143.869" y="356">El COVID-19 en América del </tspan>
            <tspan x="308.5665" y="437">Sur y el Caribe: </tspan>
            <tspan x="254.1885" y="518" font-family="Poppins-Regular, Poppins" font-weight="normal">Escuchar a los más </tspan>
            <tspan x="356.77" y="599" font-family="Poppins-Regular, Poppins" font-weight="normal">vulnerables </tspan>
        </text>
    </g>
</svg>