<?xml version="1.0" encoding="UTF-8"?>
<svg width="1000px" height="1776px" viewBox="0 0 1000 1776" version="1.1" xmlns="http://www.w3.org/2000/svg" xmlns:xlink="http://www.w3.org/1999/xlink">
    <title>svg34</title>
    <g id="svg34" stroke="none" stroke-width="1" fill="none" fill-rule="evenodd">
        <g id="Group-2" transform="translate(100.000000, 797.196970)">
            <g id="Group-10" transform="translate(0.000000, 52.472924)">
                <g id="Group" transform="translate(161.472924, 0.000000)">
                    <path d="M241.527076,66.5270761 C144.877245,66.5270761 66.5270761,144.877245 66.5270761,241.527076 C66.5270761,338.176907 144.877245,416.527076 241.527076,416.527076 C338.176907,416.527076 416.527076,338.176907 416.527076,241.527076 C416.527076,144.877245 338.176907,66.5270761 241.527076,66.5270761 Z M239.807246,137.541009 L241.527076,137.527076 C298.96469,137.527076 345.527076,184.089462 345.527076,241.527076 C345.527076,298.96469 298.96469,345.527076 241.527076,345.527076 C184.089462,345.527076 137.527076,298.96469 137.527076,241.527076 C137.527076,184.663838 183.162871,138.459411 239.807246,137.541009 Z" id="a" fill="#668490" fill-rule="nonzero" transform="translate(241.527076, 241.527076) rotate(-327.600000) translate(-241.527076, -241.527076) "></path>
                    <path d="M241.527076,66.5270761 L241.527076,137.527076 C298.96469,137.527076 345.527076,184.089462 345.527076,241.527076 C345.527076,298.96469 298.96469,345.527076 241.527076,345.527076 C184.089462,345.527076 137.527076,298.96469 137.527076,241.527076 C137.527076,205.327468 156.098642,172.40829 186.205893,153.434296 L148.350773,93.3677505 C99.1893676,124.350054 66.5270761,179.124221 66.5270761,241.527076 C66.5270761,338.176907 144.877245,416.527076 241.527076,416.527076 C338.176907,416.527076 416.527076,338.176907 416.527076,241.527076 C416.527076,144.877245 338.176907,66.5270761 241.527076,66.5270761 Z" id="arc1" fill="#F4343F" fill-rule="nonzero"></path>
                    <polyline id="Path" stroke="#605E5C" stroke-width="1.03" fill-opacity="0" fill="#000000" fill-rule="nonzero" points="192.565362 72.9937423 182.70992 58.5447167 170.359789 58.5447167"></polyline>
                    <text id="No-9%" fill-rule="nonzero" font-family="Poppins-Bold, Poppins" font-size="15" font-weight="bold" fill="#000000">
                        <tspan x="142.134328" y="41.5637238">No</tspan>
                        <tspan x="142.134328" y="62.5637238" font-family="Poppins-Regular, Poppins" font-weight="normal">9%</tspan>
                    </text>
                    <text id="91%" font-family="Poppins-Bold, Poppins" font-size="53" font-weight="bold" fill="#000000">
                        <tspan x="192.710576" y="261.527076">91%</tspan>
                    </text>
                    <text id="Sí" font-family="Poppins-Regular, Poppins" font-size="23" font-weight="normal" fill="#000000">
                        <tspan x="232.947576" y="211.527076">Sí</tspan>
                    </text>
                </g>
                <text id="9-de-cada-10-encuest" font-family="Poppins-Regular, Poppins" font-size="20" font-weight="normal" line-spacing="32" fill="#000000">
                    <tspan x="0" y="493.330106">9 de cada 10 encuestados afirman haber recibido información adecuada y </tspan>
                    <tspan x="0" y="525.330106">suficiente sobre la pandemia del COVID-19.   </tspan>
                    <tspan x="0" y="557.330106"></tspan>
                    <tspan x="0" y="589.330106">El 93 % de los encuestados señaló que la información recibida era «útil» y dos </tspan>
                    <tspan x="0" y="621.330106">tercios de estos dijeron que era «muy útil».   </tspan>
                    <tspan x="0" y="653.330106"></tspan>
                    <tspan x="0" y="685.330106">Las personas que afirmaron no tener información suficiente o adecuada sobre </tspan>
                    <tspan x="0" y="717.330106">el COVID-19 son menores de edad (16 y 17 años) y mayores de 60 años. Los </tspan>
                    <tspan x="0" y="749.330106">participantes sin formación académica o que tan solo tienen educación </tspan>
                    <tspan x="0" y="781.330106">primaria parecían tener menos acceso a la información sobre el COVID-19 (10 % </tspan>
                    <tspan x="0" y="813.330106">por debajo de la media regional). En cambio, los encuestados con formación </tspan>
                    <tspan x="0" y="845.330106">universitaria cuentan con mejor acceso a la información. </tspan>
                </text>
            </g>
            <g id="question">
                <g id="question-icon">
                    <path d="M1.38600004,2.22727273 L21,2.22727273 C29.2842712,2.22727273 36,8.94300148 36,17.2272727 L36,24.55703 C36,32.9771635 29.1741332,39.8030303 20.7539997,39.8030303 L1.38600004,39.8030303 C0.620533353,39.8030303 3.15787237e-16,39.1824969 0,38.4170303 L0,3.61327276 C-9.37426324e-17,2.84780608 0.620533353,2.22727273 1.38600004,2.22727273 Z" id="Rectangle" fill="#3B3B3B"></path>
                    <text id="Q" font-family="Poppins-Bold, Poppins" font-size="27.72" font-weight="bold" fill="#FFFFFF">
                        <tspan x="6" y="29">Q</tspan>
                    </text>
                </g>
                <text id="question-title" font-family="Poppins-Bold, Poppins" font-size="20" font-weight="bold" fill="#000000">
                    <tspan x="50" y="26.8030303">¿HAS RECIBIDO SUFICIENTE INFORMACIÓN SOBRE EL COVID-19?</tspan>
                </text>
            </g>
        </g>
        <rect id="title-bg" fill="#F7F7F7" x="99" y="10" width="810" height="34"></rect>
        <g id="main_findings" transform="translate(99.000000, 82.000000)">
            <rect id="Rectangle" fill="#F5333F" x="0" y="0" width="810" height="381" rx="20"></rect>
            <path d="M20,0 L790,0 C801.045695,-2.02906125e-15 810,8.954305 810,20 L810,48 L810,48 L0,48 L0,20 C-1.3527075e-15,8.954305 8.954305,9.13448861e-15 20,0 Z" id="Rectangle" fill="#668490"></path>
            <g id="finding" transform="translate(23.000000, 248.000000)" fill="#FFFFFF">
                <text id="Los-profesionales-sa" font-family="Poppins-SemiBold, Poppins" font-size="18" font-weight="500">
                    <tspan x="26" y="19">Los profesionales sanitarios, las autoridades sanitarias y la Cruz Roja se </tspan>
                    <tspan x="26" y="44">encuentran entre las fuentes de información preferidas. Sin embargo, las </tspan>
                    <tspan x="26" y="69">fuentes de más confianza son los profesionales sanitarios (74 %), los </tspan>
                    <tspan x="26" y="94">ministerios de salud (41 %) y los voluntarios de la Cruz Roja (40 %).</tspan>
                </text>
                <rect id="Rectangle" x="0" y="8" width="12" height="12"></rect>
            </g>
            <g id="finding" transform="translate(23.000000, 67.000000)" fill="#FFFFFF">
                <text id="La-mayoría-de-person" font-family="Poppins-SemiBold, Poppins" font-size="18" font-weight="500">
                    <tspan x="26" y="19">La mayoría de personas recibe información suficiente y adecuada.</tspan>
                </text>
                <rect id="Rectangle" x="0" y="8" width="12" height="12"></rect>
            </g>
            <text id="OBSERVACIONES-PRINCI" font-family="Poppins-Bold, Poppins" font-size="22" font-weight="bold" fill="#FFFFFF">
                <tspan x="49" y="32">OBSERVACIONES PRINCIPALES</tspan>
            </text>
            <path d="M41,16.5564292 C40.9977759,12.9343747 38.3066064,10 34.9872957,10 C31.8755033,10 29.3472658,12.5863032 29.0359365,15.8894566 L16.7840784,15.8894566 C15.8033318,15.8882717 15,16.7645725 15,17.8343467 L15,31.8977017 C15,32.9699585 15.8033318,33.8438331 16.7840784,33.8438331 L29.6763882,33.8438331 C30.6593589,33.8438331 31.4649149,32.9699585 31.4649149,31.8977017 L31.4649149,21.8482567 C32.2024016,22.4324572 33.0637682,22.8365001 33.9998767,23.0057118 L34.025532,24.5319455 L33.1663895,24.8459377 L33.1663895,33.2304056 C33.1663895,33.2304056 33.9920145,34.1553992 35.0742962,34.0750533 C36.1543536,33.9959487 36.8037019,33.2328318 36.8037019,33.2328318 L36.8048398,24.8471226 L36.0026459,24.6317008 L35.9792147,23.0056553 C38.8254023,22.4848175 40.9977759,19.8060375 41,16.5564292 Z M34.9861578,21.6060905 C32.4322132,21.6060905 30.3592022,19.3447256 30.3592022,16.5551879 C30.3592022,13.7656502 32.429989,11.5079483 34.9883819,11.5079483 C37.5422748,11.5042853 39.6153375,13.7644089 39.6175616,16.5588554 C39.6153892,19.3459669 37.5467748,21.6060905 34.9861578,21.6060905 Z M28.385502,29.9881323 L18.0749646,29.9881323 L18.0749646,28.7077886 L28.385502,28.7077886 L28.385502,29.9881323 Z M28.385502,25.508058 L18.0749646,25.508058 L18.0749646,24.2252317 L28.385502,24.2252317 L28.385502,25.508058 Z M28.385502,21.029225 L18.0749646,21.029225 L18.0749646,19.7463987 L28.385502,19.7463987 L28.385502,21.029225 Z" id="Shape" fill="#FFFFFF" fill-rule="nonzero" opacity="0.727767218"></path>
            <g id="finding" transform="translate(23.000000, 117.000000)" fill="#FFFFFF">
                <text id="Las-lagunas-de-infor" font-family="Poppins-SemiBold, Poppins" font-size="18" font-weight="500">
                    <tspan x="26" y="19">Las lagunas de información están relacionadas con el tratamiento, las pruebas </tspan>
                    <tspan x="26" y="44">y el apoyo a la salud mental. </tspan>
                </text>
                <rect id="Rectangle" x="0" y="8" width="12" height="12"></rect>
            </g>
            <g id="finding" transform="translate(23.000000, 75.000000)" fill="#FFFFFF">
                <rect id="Rectangle" x="0" y="0" width="12" height="12"></rect>
            </g>
            <g id="finding" transform="translate(23.000000, 125.000000)" fill="#FFFFFF">
                <rect id="Rectangle" x="0" y="0" width="12" height="12"></rect>
            </g>
            <g id="finding" transform="translate(23.000000, 197.000000)" fill="#FFFFFF">
                <text id="Los-pueblos-indígena" font-family="Poppins-SemiBold, Poppins" font-size="18" font-weight="500">
                    <tspan x="26" y="19">Los pueblos indígenas afirman haber recibido menos información en general.</tspan>
                </text>
                <rect id="Rectangle" x="0" y="8" width="12" height="12"></rect>
            </g>
        </g>
        <g id="scroll_down_g" transform="translate(225.000000, 548.000000)">
            <rect id="Rectangle" fill="#FFFFFF" opacity="0.534372239" x="0" y="4" width="564" height="74"></rect>
            <g id="scroll_down" transform="translate(13.000000, 0.000000)">
                <text id="Sigue-deslizando-par" font-family="Poppins-SemiBold, Poppins" font-size="18" font-weight="500" fill="#000000">
                    <tspan x="0" y="19">Sigue deslizando para ver los hechos y las cifras detallados.</tspan>
                </text>
                <polyline id="Path-10" stroke="#717171" stroke-width="5" stroke-linecap="round" points="216.954894 51.7016895 263.260238 76.7016895 309.565581 51.7016895"></polyline>
                <polyline id="Path-10" stroke="#717171" stroke-width="3" stroke-linecap="round" points="216.954894 60.7016895 263.260238 85.7016895 309.565581 60.7016895"></polyline>
                <polyline id="Path-10" stroke="#717171" stroke-width="3" stroke-linecap="round" points="216.954894 60.7016895 263.260238 85.7016895 309.565581 60.7016895"></polyline>
            </g>
        </g>
        <text id="Acceso-a-la-informac" font-family="Poppins-Bold, Poppins" font-size="28" font-weight="bold" fill="#000000">
            <tspan x="121" y="36"> Acceso a la información</tspan>
        </text>
        <rect id="Rectangle" fill="#F5333F" x="100" y="12" width="13" height="30"></rect>
    </g>
</svg>