<?xml version="1.0" encoding="UTF-8"?>
<svg width="1000px" height="1364px" viewBox="0 0 1000 1364" version="1.1" xmlns="http://www.w3.org/2000/svg" xmlns:xlink="http://www.w3.org/1999/xlink">
    <title>svg39</title>
    <g id="svg39" stroke="none" stroke-width="1" fill="none" fill-rule="evenodd">
        <rect id="title-bg" fill="#F7F7F7" x="99" y="10" width="810" height="34"></rect>
        <text id="PRINCIPALES-IMPACTOS" font-family="Poppins-Bold, Poppins" font-size="20" font-weight="bold" fill="#000000">
            <tspan x="100" y="814">PRINCIPALES IMPACTOS SOCIOECONÓMICOS</tspan>
        </text>
        <text id="Los-principale-impac" font-family="Poppins-Regular, Poppins" font-size="20" font-weight="normal" line-spacing="32" fill="#000000">
            <tspan x="100" y="877">Los principale impactos que los participantes mencionaron fueron: reducción </tspan>
            <tspan x="100" y="909">de ingresos (78 %); despido o pérdida de ingresos familiares (52 %); aumento </tspan>
            <tspan x="100" y="941">de los costes de vida (46 %); incapacidad de comprar productos de primera </tspan>
            <tspan x="100" y="973">necesidad (comida, medicinas, etc.) (27 %) y pérdida de la vivienda (19 %).</tspan>
        </text>
        <g id="Group-3" transform="translate(10.000000, 1030.000000)" fill-rule="nonzero">
            <text id="Reducción-de-ingreso" font-family="Poppins-Regular, Poppins" font-size="15" font-weight="normal" fill="#000000">
                <tspan x="356.023471" y="19">Reducción de ingresos</tspan>
            </text>
            <text id="Pérdida-de-ingresos" font-family="Poppins-Regular, Poppins" font-size="15" font-weight="normal" fill="#000000">
                <tspan x="379.275" y="52">Pérdida de ingresos</tspan>
            </text>
            <text id="Aumento-de-los-coste" font-family="Poppins-Regular, Poppins" font-size="15" font-weight="normal" fill="#000000">
                <tspan x="297.345" y="85">Aumento de los costes de vida</tspan>
            </text>
            <text id="Incapacidad-de-compr" font-family="Poppins-Regular, Poppins" font-size="15" font-weight="normal" fill="#000000">
                <tspan x="86.0684713" y="117">Incapacidad de comprar productos de primero necesidad</tspan>
            </text>
            <text id="Pérdida-de-la-vivien" font-family="Poppins-Regular, Poppins" font-size="15" font-weight="normal" fill="#000000">
                <tspan x="359.953471" y="150">Pérdida de la vivienda</tspan>
            </text>
            <text id="Incapacidad-de-obten" font-family="Poppins-Regular, Poppins" font-size="15" font-weight="normal" fill="#000000">
                <tspan x="149.685" y="184">Incapacidad de obtener atención sanitaria básica</tspan>
            </text>
            <text id="Incapacidad-de-compr" font-family="Poppins-Regular, Poppins" font-size="15" font-weight="normal" fill="#000000">
                <tspan x="260.13" y="217">Incapacidad de comprar alimentos</tspan>
            </text>
            <text id="Incapacidad-de-acced" font-family="Poppins-Regular, Poppins" font-size="15" font-weight="normal" fill="#000000">
                <tspan x="169.065" y="250">Incapacidad de acceder a la atención sanitaria</tspan>
            </text>
            <rect id="Rectangle" fill="#668490" x="536" y="0" width="344" height="26"></rect>
            <rect id="Rectangle" fill="#668490" x="536" y="33" width="229" height="26"></rect>
            <rect id="Rectangle" fill="#668490" x="536" y="66" width="204" height="26"></rect>
            <rect id="Rectangle" fill="#668490" x="536" y="99" width="121" height="26"></rect>
            <rect id="Rectangle" fill="#668490" x="536" y="132" width="85" height="26"></rect>
            <rect id="Rectangle" fill="#668490" x="536" y="165" width="58" height="26"></rect>
            <rect id="Rectangle" fill="#668490" x="536" y="198" width="19" height="26"></rect>
            <rect id="Rectangle" fill="#668490" x="536" y="231" width="11" height="26"></rect>
            <text id="78%" font-family="Poppins-Regular, Poppins" font-size="12" font-weight="normal" fill="#FFFFFF">
                <tspan x="851" y="17">78%</tspan>
            </text>
            <text id="52%" font-family="Poppins-Regular, Poppins" font-size="12" font-weight="normal" fill="#FFFFFF">
                <tspan x="737" y="51">52%</tspan>
            </text>
            <text id="46%" font-family="Poppins-Regular, Poppins" font-size="12" font-weight="normal" fill="#FFFFFF">
                <tspan x="710" y="84">46%</tspan>
            </text>
            <text id="27%" font-family="Poppins-Regular, Poppins" font-size="12" font-weight="normal" fill="#FFFFFF">
                <tspan x="627" y="117">27%</tspan>
            </text>
            <text id="19%" font-family="Poppins-Regular, Poppins" font-size="12" font-weight="normal" fill="#FFFFFF">
                <tspan x="594" y="150">19%</tspan>
            </text>
            <text id="13%" font-family="Poppins-Regular, Poppins" font-size="12" font-weight="normal" fill="#FFFFFF">
                <tspan x="567" y="183">13%</tspan>
            </text>
            <text id="4%" font-family="Poppins-Regular, Poppins" font-size="12" font-weight="normal" fill="#000000">
                <tspan x="561" y="216">4%</tspan>
            </text>
            <text id="2%" font-family="Poppins-Regular, Poppins" font-size="12" font-weight="normal" fill="#000000">
                <tspan x="553" y="249">2%</tspan>
            </text>
        </g>
        <text id="Impactos-socioeconóm" font-family="Poppins-Bold, Poppins" font-size="28" font-weight="bold" fill="#000000">
            <tspan x="122" y="36">Impactos socioeconómicos del COVID-19</tspan>
        </text>
        <g id="main_findings" transform="translate(99.000000, 82.000000)">
            <rect id="Rectangle" fill="#F5333F" x="0" y="0" width="810" height="381" rx="20"></rect>
            <path d="M20,0 L790,0 C801.045695,-2.02906125e-15 810,8.954305 810,20 L810,48 L810,48 L0,48 L0,20 C-1.3527075e-15,8.954305 8.954305,9.13448861e-15 20,0 Z" id="Rectangle" fill="#668490"></path>
            <g id="finding" transform="translate(23.000000, 67.000000)" fill="#FFFFFF">
                <text id="Los-impactos-socioec" font-family="Poppins-SemiBold, Poppins" font-size="18" font-weight="500">
                    <tspan x="26" y="19">Los impactos socioeconómicos y sanitarios son las principales preocupaciones </tspan>
                    <tspan x="26" y="44">en las comunidades.</tspan>
                </text>
                <rect id="Rectangle" x="0" y="8" width="12" height="12"></rect>
            </g>
            <text id="PRINCIPALES-HALLAZGO" font-family="Poppins-Bold, Poppins" font-size="22" font-weight="bold" fill="#FFFFFF">
                <tspan x="49" y="32">PRINCIPALES HALLAZGOS</tspan>
            </text>
            <path d="M41,16.5564292 C40.9977759,12.9343747 38.3066064,10 34.9872957,10 C31.8755033,10 29.3472658,12.5863032 29.0359365,15.8894566 L16.7840784,15.8894566 C15.8033318,15.8882717 15,16.7645725 15,17.8343467 L15,31.8977017 C15,32.9699585 15.8033318,33.8438331 16.7840784,33.8438331 L29.6763882,33.8438331 C30.6593589,33.8438331 31.4649149,32.9699585 31.4649149,31.8977017 L31.4649149,21.8482567 C32.2024016,22.4324572 33.0637682,22.8365001 33.9998767,23.0057118 L34.025532,24.5319455 L33.1663895,24.8459377 L33.1663895,33.2304056 C33.1663895,33.2304056 33.9920145,34.1553992 35.0742962,34.0750533 C36.1543536,33.9959487 36.8037019,33.2328318 36.8037019,33.2328318 L36.8048398,24.8471226 L36.0026459,24.6317008 L35.9792147,23.0056553 C38.8254023,22.4848175 40.9977759,19.8060375 41,16.5564292 Z M34.9861578,21.6060905 C32.4322132,21.6060905 30.3592022,19.3447256 30.3592022,16.5551879 C30.3592022,13.7656502 32.429989,11.5079483 34.9883819,11.5079483 C37.5422748,11.5042853 39.6153375,13.7644089 39.6175616,16.5588554 C39.6153892,19.3459669 37.5467748,21.6060905 34.9861578,21.6060905 Z M28.385502,29.9881323 L18.0749646,29.9881323 L18.0749646,28.7077886 L28.385502,28.7077886 L28.385502,29.9881323 Z M28.385502,25.508058 L18.0749646,25.508058 L18.0749646,24.2252317 L28.385502,24.2252317 L28.385502,25.508058 Z M28.385502,21.029225 L18.0749646,21.029225 L18.0749646,19.7463987 L28.385502,19.7463987 L28.385502,21.029225 Z" id="Shape" fill="#FFFFFF" fill-rule="nonzero" opacity="0.727767218"></path>
            <g id="finding" transform="translate(23.000000, 145.000000)" fill="#FFFFFF">
                <text id="De-todos-los-partici" font-family="Poppins-SemiBold, Poppins" font-size="18" font-weight="500">
                    <tspan x="26" y="19">De todos los participantes, las mujeres embarazadas y lactantes son las que </tspan>
                    <tspan x="26" y="44">han expresado más preocupaciones en general.</tspan>
                </text>
                <rect id="Rectangle" x="0" y="8" width="12" height="12"></rect>
            </g>
            <g id="finding" transform="translate(23.000000, 75.000000)" fill="#FFFFFF">
                <rect id="Rectangle" x="0" y="0" width="12" height="12"></rect>
            </g>
            <g id="finding" transform="translate(23.000000, 223.000000)" fill="#FFFFFF">
                <text id="Las-economías-y-las" font-family="Poppins-SemiBold, Poppins" font-size="18" font-weight="500">
                    <tspan x="26" y="19">Las economías y las condiciones de vivienda se han visto muy afectadas por la </tspan>
                    <tspan x="26" y="44">pandemia, sobre todo para los más vulnerables. Los encuestados indígenas </tspan>
                    <tspan x="26" y="69">sufren graves impactos socioeconómicos.  El 87 % declara que los impactos </tspan>
                    <tspan x="26" y="94">que más han sufrido son la reducción de ingresos, el aumento de los costes de </tspan>
                    <tspan x="26" y="119">vida y la incapacidad de obtener atención sanitaria básica.</tspan>
                </text>
                <rect id="Rectangle" x="0" y="8" width="12" height="12"></rect>
            </g>
        </g>
        <g id="scroll_down_g" transform="translate(225.000000, 530.000000)">
            <rect id="Rectangle" fill="#FFFFFF" opacity="0.534372239" x="0" y="4" width="564" height="74"></rect>
            <g id="scroll_down" transform="translate(13.000000, 0.000000)">
                <text id="Sigue-deslizando-par" font-family="Poppins-SemiBold, Poppins" font-size="18" font-weight="500" fill="#000000">
                    <tspan x="0" y="19">Sigue deslizando para ver los hechos y las cifras detallados.</tspan>
                </text>
                <polyline id="Path-10" stroke="#717171" stroke-width="5" stroke-linecap="round" points="216.954894 51.7016895 263.260238 76.7016895 309.565581 51.7016895"></polyline>
                <polyline id="Path-10" stroke="#717171" stroke-width="3" stroke-linecap="round" points="216.954894 60.7016895 263.260238 85.7016895 309.565581 60.7016895"></polyline>
                <polyline id="Path-10" stroke="#717171" stroke-width="3" stroke-linecap="round" points="216.954894 60.7016895 263.260238 85.7016895 309.565581 60.7016895"></polyline>
            </g>
        </g>
        <rect id="Rectangle" fill="#F5333F" x="100" y="12" width="13" height="30"></rect>
    </g>
</svg>