<?xml version="1.0" encoding="UTF-8"?>
<svg width="1000px" height="40px" viewBox="0 0 1000 40" version="1.1" xmlns="http://www.w3.org/2000/svg" xmlns:xlink="http://www.w3.org/1999/xlink">
    <title>svg_nav</title>
    <g id="svg_nav" stroke="none" stroke-width="1" fill="none" fill-rule="evenodd">
        <rect fill="#FFFFFF" x="0" y="0" width="1000" height="40"></rect>
        <rect id="Rectangle" fill="#FFFFFF" x="-945" y="-4" width="2868" height="44"></rect>
        <rect id="bg_home" fill="#F1F1F1" opacity="0" x="87" y="-4" width="149" height="44"></rect>
        <g id="Group" transform="translate(95.000000, 6.000000)">
            <g id="Group-2" transform="translate(4.760274, 1.904110)" fill-rule="nonzero">
                <path d="M7.83227642,14.8935697 L0,14.8935697 L0,8.12504139 L7.83227642,8.12504139 L7.83227642,0.224946836 L14.5443418,0.224946836 L14.5443418,8.12040382 L14.5420416,8.12504139 L22.3766182,8.12504139 L22.3766182,14.8912509 L14.5420416,14.8912509 L14.5443418,14.8889321 L14.5443418,22.7843891 L7.83227642,22.7843891 L7.83227642,14.8889321 L7.83227642,14.8935697 Z M32.7598475,11.3852506 C32.7598475,6.12856901 36.9876666,1.8643266 42.2045838,1.8643266 C43.3661989,1.8643266 44.4795093,2.07533587 45.505411,2.46257268 C43.5066391,0.864299417 41.0294559,-0.00378246274 38.4782144,1.2389309e-05 C32.2192939,1.2389309e-05 27.1449909,5.11526072 27.1449909,11.42467 C27.1449909,17.7340792 32.2192939,22.8493151 38.4782144,22.8493151 C41.2200862,22.8493151 43.7365356,21.866151 45.6986301,20.2314088 C44.617523,20.6650212 43.4398062,20.9038559 42.206884,20.9038559 C36.9899668,20.9061747 32.7598475,16.6419323 32.7598475,11.3852506" id="Shape" fill="#F5333F"></path>
                <path d="M118.544184,22.8493151 C120.440406,22.8493151 122.159861,22.510841 123.700255,21.8385296 C125.242944,21.1638999 126.533109,20.1878892 127.575342,18.9035425 L124.324676,15.8735045 C122.84397,17.6215142 121.012027,18.4932007 118.824255,18.4932007 C117.469811,18.4932007 116.259994,18.1941381 115.199395,17.5936944 C114.136501,16.9932508 113.307765,16.1586573 112.715482,15.0852773 C112.120904,14.0118973 111.824763,12.7924635 111.824763,11.4246575 C111.824763,10.0568515 112.1232,8.8350994 112.715482,7.76171944 C113.307765,6.68833949 114.136501,5.85142768 115.199395,5.25330235 C116.26229,4.6528587 117.469811,4.35379603 118.824255,4.35379603 C121.012027,4.35379603 122.846266,5.2162093 124.324676,6.94335416 L127.575342,3.91331614 C126.533109,2.64983433 125.247535,1.68309687 123.714029,1.01078545 C122.182818,0.336155711 120.470249,0 118.574028,0 C116.324273,0 114.297198,0.489164517 112.495098,1.46749355 C110.690703,2.44582258 109.274276,3.80435532 108.243521,5.53845512 C107.212766,7.27487324 106.69624,9.23848626 106.69624,11.4246575 C106.69624,13.6131471 107.212766,15.5744418 108.243521,17.3108599 C109.274276,19.0472781 110.690703,20.4034925 112.495098,21.3818215 C114.297198,22.3601506 116.312794,22.8493151 118.544184,22.8493151 M98.321643,8.39461951 C98.321643,9.61637164 97.926788,10.5622443 97.1347825,11.236874 C96.342777,11.9115037 95.1857603,12.2476594 93.6660279,12.2476594 L89.5407122,12.2476594 L89.5407122,4.5462162 L93.6660279,4.5462162 C95.1880559,4.5462162 96.342777,4.87773528 97.1347825,5.54077344 C97.926788,6.19917497 98.321643,7.15200254 98.321643,8.39461951 M103.854203,22.4714297 L98.9483604,15.3704301 C100.385449,14.7398483 101.496552,13.8287504 102.277079,12.6394547 C103.057606,11.450159 103.44787,10.0359867 103.44787,8.39461951 C103.44787,6.75325231 103.062198,5.33444338 102.293149,4.13355608 C101.521804,2.9349871 100.422179,2.007661 98.9965694,1.35621442 C97.5686638,0.704767835 95.885939,0.377885385 93.9483951,0.377885385 L84.4787639,0.377885385 L84.4787639,22.4714297 L89.5430079,22.4714297 L89.5430079,16.3163027 L94.2009186,16.3163027 L98.4203567,22.4714297 L103.854203,22.4714297 L103.854203,22.4714297 Z M80.1009247,4.47898506 L80.1009247,0.37556707 L63.5675225,0.37556707 L63.5675225,22.4691114 L68.6317665,22.4691114 L68.6317665,14.4199208 L78.7579588,14.4199208 L78.7579588,10.3165028 L68.6317665,10.3165028 L68.6317665,4.47666674 L80.1009247,4.47666674 L80.1009247,4.47898506 Z M53.3150685,22.4714297 L58.3793125,22.4714297 L58.3793125,0.377885385 L53.3150685,0.377885385 L53.3150685,22.4714297 Z" id="Shape" fill="#333132"></path>
            </g>
            <rect id="link_home" fill-opacity="0" fill="#00FFC6" x="0" y="0" width="139" height="26.6575342"></rect>
        </g>
        <rect id="bg_background" fill="#F1F1F1" opacity="0" x="235" y="-4" width="98" height="44"></rect>
        <rect id="bg_keyfindings" fill="#F1F1F1" opacity="0" x="334.408219" y="-4" width="149" height="44"></rect>
        <rect id="bg_recommendations" fill="#F1F1F1" opacity="0" x="472.660274" y="-4" width="132" height="44"></rect>
        <rect id="bg_methodology" fill="#F1F1F1" opacity="0" x="717.832877" y="-4" width="98" height="44"></rect>
        <rect id="bg_publications" fill="#F1F1F1" opacity="0" x="615.832877" y="-4" width="104" height="44"></rect>
        <rect id="bg_references" fill="#F1F1F1" opacity="0" x="818.794521" y="-4" width="86" height="44"></rect>
        <text id="link_text_background" font-family="Poppins-Regular, Poppins" font-size="12.3" font-weight="normal" fill="#000000">
            <tspan x="239.92663" y="25">ANTECEDENTES  </tspan>
        </text>
        <text id="link_text_keyfindings" font-family="Poppins-Regular, Poppins" font-size="12.3" font-weight="normal" fill="#000000">
            <tspan x="351.67502" y="25">HALLAZGOS CLAVE</tspan>
        </text>
        <text id="link_text_recommendations" font-family="Poppins-Regular, Poppins" font-size="12.3" font-weight="normal" fill="#000000">
            <tspan x="482.644263" y="25">RECOMENDACIONES</tspan>
        </text>
        <text id="link_text_methodology" font-family="Poppins-Regular, Poppins" font-size="12.3" font-weight="normal" fill="#000000">
            <tspan x="725.446103" y="25">METODOLOGÍA</tspan>
        </text>
        <text id="link_text_references" font-family="Poppins-Regular, Poppins" font-size="12.3" font-weight="normal" fill="#000000">
            <tspan x="822.571274" y="25">REFERENCIAS</tspan>
        </text>
        <text id="link_text_publications" font-family="Poppins-Regular, Poppins" font-size="12.3" font-weight="normal" fill="#000000">
            <tspan x="619.87093" y="25">PUBLICACIONES</tspan>
        </text>
        <rect id="link_background" fill-opacity="0" fill="#FFFFFF" x="230.846575" y="6" width="103.742466" height="28"></rect>
        <rect id="link_keyfindings" fill-opacity="0" fill="#FFFFFF" x="332.627397" y="6" width="145.89589" height="28"></rect>
        <rect id="link_recommendations" fill-opacity="0" fill="#FFFFFF" x="475.561644" y="6" width="130.093151" height="28"></rect>
        <rect id="link_methodology" fill-opacity="0" fill="#FFFFFF" x="720.512329" y="6" width="94.358904" height="28"></rect>
        <rect id="link_references" fill-opacity="0" fill="#FFFFFF" x="817.909589" y="6" width="87" height="28"></rect>
        <rect id="link_publications" fill-opacity="0" fill="#FFFFFF" x="612.693151" y="5" width="105.780822" height="28"></rect>
        <line x1="-853.361723" y1="40" x2="1915.93606" y2="40" id="Path-6" stroke="#F1F1F1"></line>
    </g>
</svg>