<?xml version="1.0" encoding="UTF-8"?>
<svg width="1000px" height="686px" viewBox="0 0 1000 686" version="1.1" xmlns="http://www.w3.org/2000/svg" xmlns:xlink="http://www.w3.org/1999/xlink">
    <title>svg13</title>
    <g id="svg13" stroke="none" stroke-width="1" fill="none" fill-rule="evenodd">
        <rect fill="#FFFFFF" x="0" y="0" width="1000" height="686"></rect>
        <text id="However,-according-t" font-family="Poppins-Regular, Poppins" font-size="20" font-weight="normal" line-spacing="32" fill="#000000">
            <tspan x="100" y="71">However, according to data collated by </tspan>
            <tspan x="499.54" y="71" font-family="Poppins-Bold, Poppins" font-weight="bold" text-decoration="underline">Our World in Data (OWID)</tspan>
            <tspan x="761.56" y="71">, by 22nd </tspan>
            <tspan x="100" y="103">October 2021,  46% of the total population within the 9 surveyed countries had </tspan>
            <tspan x="100" y="135">been fully vaccinated.</tspan>
        </text>
        <g id="OWID1" transform="translate(86.000000, 179.998507)">
            <line x1="650.5" y1="421.001493" x2="650.5" y2="427.001493" id="Path" stroke="#999999" fill="#000000" fill-rule="nonzero"></line>
            <line x1="341.5" y1="421.001493" x2="341.5" y2="427.001493" id="Path" stroke="#999999" fill="#000000" fill-rule="nonzero"></line>
            <line x1="274.5" y1="421.001493" x2="274.5" y2="427.001493" id="Path" stroke="#999999" fill="#000000" fill-rule="nonzero"></line>
            <line x1="209.5" y1="421.001493" x2="209.5" y2="427.001493" id="Path" stroke="#999999" fill="#000000" fill-rule="nonzero"></line>
            <line x1="142.5" y1="421.001493" x2="142.5" y2="427.001493" id="Path" stroke="#999999" fill="#000000" fill-rule="nonzero"></line>
            <line x1="81.5" y1="421.001493" x2="81.5" y2="427.001493" id="Path" stroke="#999999" fill="#000000" fill-rule="nonzero"></line>
            <line x1="406.5" y1="421.001493" x2="406.5" y2="427.001493" id="Path" stroke="#999999" fill="#000000" fill-rule="nonzero"></line>
            <line x1="474.5" y1="421.001493" x2="474.5" y2="427.001493" id="Path" stroke="#999999" fill="#000000" fill-rule="nonzero"></line>
            <line x1="540.5" y1="421.001493" x2="540.5" y2="427.001493" id="Path" stroke="#999999" fill="#000000" fill-rule="nonzero"></line>
            <line x1="605.5" y1="421.001493" x2="605.5" y2="427.001493" id="Path" stroke="#999999" fill="#000000" fill-rule="nonzero"></line>
            <line x1="650.5" y1="421.001493" x2="650.5" y2="427.001493" id="Path" stroke="#999999" fill="#000000" fill-rule="nonzero"></line>
            <text id="0%" font-family="Poppins-Regular, Poppins" font-size="16" font-weight="normal" fill="#000000">
                <tspan x="21.808" y="425.001493">0%</tspan>
            </text>
            <text id="10%" font-family="Poppins-Regular, Poppins" font-size="16" font-weight="normal" fill="#000000">
                <tspan x="17.688" y="352.001493">10%</tspan>
            </text>
            <text id="20%" font-family="Poppins-Regular, Poppins" font-size="16" font-weight="normal" fill="#000000">
                <tspan x="13.608" y="279.001493">20%</tspan>
            </text>
            <text id="30%" font-family="Poppins-Regular, Poppins" font-size="16" font-weight="normal" fill="#000000">
                <tspan x="13.384" y="206.001493">30%</tspan>
            </text>
            <text id="40%" font-family="Poppins-Regular, Poppins" font-size="16" font-weight="normal" fill="#000000">
                <tspan x="12.744" y="133.001493">40%</tspan>
            </text>
            <text id="50%" font-family="Poppins-Regular, Poppins" font-size="16" font-weight="normal" fill="#000000">
                <tspan x="12.76" y="60.0014927">50%</tspan>
            </text>
            <line x1="55" y1="347.501493" x2="650" y2="347.501493" id="Path" stroke="#DDDDDD" fill="#000000" fill-rule="nonzero" stroke-dasharray="3,2"></line>
            <line x1="55" y1="274.501493" x2="650" y2="274.501493" id="Path" stroke="#DDDDDD" fill="#000000" fill-rule="nonzero" stroke-dasharray="3,2"></line>
            <line x1="55" y1="201.501493" x2="650" y2="201.501493" id="Path" stroke="#DDDDDD" fill="#000000" fill-rule="nonzero" stroke-dasharray="3,2"></line>
            <line x1="55" y1="128.501493" x2="650" y2="128.501493" id="Path" stroke="#DDDDDD" fill="#000000" fill-rule="nonzero" stroke-dasharray="3,2"></line>
            <line x1="55" y1="55.5014927" x2="650" y2="55.5014927" id="Path" stroke="#DDDDDD" fill="#000000" fill-rule="nonzero" stroke-dasharray="3,2"></line>
            <line x1="55" y1="420.501493" x2="651" y2="420.501493" id="Path" stroke="#999999" fill-rule="nonzero"></line>
            <g id="Group" transform="translate(55.000000, 0.000000)">
                <g transform="translate(601.590714, 0.000000)" fill-rule="nonzero" font-family="Poppins-Medium, Poppins" font-size="15" font-weight="400">
                    <text id="Argentina" fill="#C45267">
                        <tspan x="0" y="16">Argentina</tspan>
                    </text>
                    <text id="Panama" fill="#0F739C">
                        <tspan x="0" y="35.9221576">Panama</tspan>
                    </text>
                    <text id="Brazil" fill="#C05917">
                        <tspan x="0" y="55.119383">Brazil</tspan>
                    </text>
                    <text id="Trinidad-and-Tobago" fill="#00823F">
                        <tspan x="0" y="119.132539">Trinidad and Tobago</tspan>
                    </text>
                    <text id="Colombia" fill="#9A5129">
                        <tspan x="5.68434189e-14" y="137.054962">Colombia</tspan>
                    </text>
                    <text id="Bolivia" fill="#D73C50">
                        <tspan x="0" y="193.353039">Bolivia</tspan>
                    </text>
                    <text id="Guatemala" fill="#287669">
                        <tspan x="0" y="298.149049">Guatemala</tspan>
                    </text>
                    <text id="Jamaica" fill="#4C6A9C">
                        <tspan x="5.68434189e-14" y="337.339635">Jamaica</tspan>
                    </text>
                    <text id="Nicaragua" fill="#CD2285">
                        <tspan x="0" y="385.1077">Nicaragua</tspan>
                    </text>
                </g>
                <g transform="translate(0.000000, 18.977214)" id="Path" stroke-linejoin="round">
                    <polyline stroke="#CD2285" stroke-width="1.5" points="382.699036 383.281854 451.910564 379.528649 458.459993 379.187449 473.594483 379.073715 488.728973 378.618781 503.863463 372.932107 518.997953 370.657437 536.256582 369.861303 549.266933 367.927833 564.401423 365.311963 594.670404 361.558758"></polyline>
                    <g transform="translate(246.488625, 313.790693)">
                        <polyline stroke="#FFFFFF" stroke-width="2.5" points="-1.42108547e-14 85.5275829 15.1344901 83.7078471 30.2689802 81.7743778 45.4034703 81.7743778 60.5379604 79.6134415 90.8069406 68.3538262 121.075921 59.9375481 129.749488 59.4826142 136.210411 58.2315458 151.344901 57.3216779 181.702387 54.8195412 196.836877 54.1371402 211.971367 53.4547393 220.556429 53.1135389 222.769074 52.8860719 227.105857 52.6586049 229.229996 52.4311379 231.354135 52.4311379 235.690919 51.8624705 237.903564 51.6350035 242.240348 51.293803 248.70127 50.9526026 253.038054 50.0427347 255.162193 49.8152677 257.374838 49.4740672 263.83576 43.9011263 268.172544 35.0299143 270.296683 34.2337799 281.094389 33.5513789 287.643818 33.2101785 294.104741 27.6372376 296.228879 25.1351008 304.902447 18.424825 313.576014 15.9226883 315.700153 14.444153 317.912798 13.0793511 322.161076 9.09867903 326.49786 8.07507764 328.710504 7.16520974 330.834643 6.02787486 333.047288 4.54933952 341.63235 1.36480185 345.969134 0.682400927 348.181778 0"></polyline>
                        <polyline stroke="#4C6A9C" stroke-width="1.5" points="-1.42108547e-14 85.5275829 15.1344901 83.7078471 30.2689802 81.7743778 45.4034703 81.7743778 60.5379604 79.6134415 90.8069406 68.3538262 121.075921 59.9375481 129.749488 59.4826142 136.210411 58.2315458 151.344901 57.3216779 181.702387 54.8195412 196.836877 54.1371402 211.971367 53.4547393 220.556429 53.1135389 222.769074 52.8860719 227.105857 52.6586049 229.229996 52.4311379 231.354135 52.4311379 235.690919 51.8624705 237.903564 51.6350035 242.240348 51.293803 248.70127 50.9526026 253.038054 50.0427347 255.162193 49.8152677 257.374838 49.4740672 263.83576 43.9011263 268.172544 35.0299143 270.296683 34.2337799 281.094389 33.5513789 287.643818 33.2101785 294.104741 27.6372376 296.228879 25.1351008 304.902447 18.424825 313.576014 15.9226883 315.700153 14.444153 317.912798 13.0793511 322.161076 9.09867903 326.49786 8.07507764 328.710504 7.16520974 330.834643 6.02787486 333.047288 4.54933952 341.63235 1.36480185 345.969134 0.682400927 348.181778 0"></polyline>
                    </g>
                    <g transform="translate(224.893213, 99.630535)">
                        <polyline stroke="#FFFFFF" stroke-width="2.5" points="-2.84217094e-14 301.280009 2.21264475 301.280009 4.33678372 301.166276 6.46092268 301.052542 8.67356743 300.938809 10.7977064 300.938809 13.0103511 300.825076 15.1344901 300.825076 17.3471349 300.825076 19.4712738 300.825076 21.5954128 300.825076 23.8080575 300.825076 25.9321965 300.825076 28.1448413 300.825076 30.2689802 300.825076 32.481625 300.825076 34.6057639 300.825076 36.7299029 300.825076 38.9425476 300.825076 41.0666866 300.825076 43.2793314 300.825076 45.4034703 300.825076 47.6161151 300.825076 49.740254 300.825076 51.864393 300.825076 54.0770378 300.825076 56.2011767 300.825076 58.4138215 300.825076 60.5379604 300.825076 62.7506052 300.825076 64.8747441 300.825076 66.9988831 300.825076 69.2115279 300.825076 71.3356668 300.825076 73.5483116 300.142675 75.6724505 299.574007 77.8850953 298.322939 80.0092343 297.640538 82.1333732 296.389469 84.346018 296.162003 86.4701569 295.365868 88.6828017 293.432399 90.8069406 291.726396 93.0195854 288.883059 95.1437244 285.698522 97.2678633 282.40025 99.4805081 281.035449 101.604647 281.035449 103.817292 278.533312 105.941431 277.737177 108.154076 274.666373 110.278214 271.709303 112.402353 268.297298 114.614998 265.567694 116.739137 264.316626 118.951782 263.634225 121.075921 259.88102 123.288566 255.217947 125.412705 250.896074 127.536844 247.939004 129.749488 246.574202 131.873627 242.707263 134.086272 239.067792 136.210411 237.248056 138.423056 233.949785 140.547195 230.082846 142.671334 228.604311 144.883978 228.376844 147.008117 228.376844 149.220762 228.376844 151.344901 227.239509 153.557546 226.329641 155.681685 225.30604 157.805824 222.576436 160.018469 219.733099 162.142607 215.752427 164.355252 211.316821 166.479391 210.520686 168.692036 210.065752 170.816175 209.497085 172.940314 208.246016 175.152959 207.222415 177.277098 207.222415 179.489742 206.653748 181.613881 205.402679 183.826526 204.492811 185.950665 203.128009 188.16331 201.763208 190.287449 200.284672 192.411588 200.170939 194.624232 200.170939 196.748371 200.057205 198.961016 198.237469 201.085155 195.849066 203.2978 191.868394 205.421939 185.726786 207.546078 182.883449 209.758723 181.746114 211.882862 175.490772 214.095506 168.89423 216.219645 160.364218 218.43229 153.653942 220.556429 149.218336 222.680568 141.370725 224.893213 135.00165 227.017352 130.224844 229.229996 125.22057 231.354135 121.467365 233.56678 116.690559 235.690919 112.141219 237.815058 110.54895 240.027703 109.639082 242.151842 107.93308 244.364486 105.430943 246.488625 103.156274 248.70127 101.222804 250.825409 98.7206675 252.949548 96.9009317 255.162193 95.8773303 257.286332 94.171328 259.498977 93.716394 261.623116 91.5554578 263.83576 89.508255 265.959899 87.5747857 268.084038 86.8923848 270.296683 86.5511843 272.420822 84.7314485 274.633467 82.9117127 276.757606 80.2958425 278.97025 77.4525053 281.094389 73.6993002 283.218528 72.2207648 285.431173 71.0834299 287.555312 68.3538262 289.767957 66.3066235 291.892096 64.3731542 294.104741 62.8946188 296.228879 61.4160835 298.353018 60.7336825 300.565663 60.3924821 302.689802 58.5727463 304.902447 57.3216779 307.026586 55.7294091 309.239231 54.3646072 311.36337 54.3646072 313.487509 52.7723384 315.700153 52.203671 317.824292 48.5641993 320.036937 45.2659282 322.161076 42.7637915 324.373721 40.6028552 326.49786 38.5556524 328.621999 37.532051 330.834643 36.7359166 332.958782 32.641511 335.171427 28.660839 337.295566 25.5900348 339.508211 22.7466976 341.63235 19.3346929 343.756489 17.6286906 345.969134 16.9462897 348.093272 14.3304195 350.305917 12.2832167 352.430056 10.8046814 354.642701 9.32614601 356.76684 8.18881113 358.890979 7.5064102 361.103624 7.16520974 363.227763 4.89053998 365.440407 3.07080417 367.564546 1.59226883 369.777191 0"></polyline>
                        <polyline stroke="#00823F" stroke-width="1.5" points="-2.84217094e-14 301.280009 2.21264475 301.280009 4.33678372 301.166276 6.46092268 301.052542 8.67356743 300.938809 10.7977064 300.938809 13.0103511 300.825076 15.1344901 300.825076 17.3471349 300.825076 19.4712738 300.825076 21.5954128 300.825076 23.8080575 300.825076 25.9321965 300.825076 28.1448413 300.825076 30.2689802 300.825076 32.481625 300.825076 34.6057639 300.825076 36.7299029 300.825076 38.9425476 300.825076 41.0666866 300.825076 43.2793314 300.825076 45.4034703 300.825076 47.6161151 300.825076 49.740254 300.825076 51.864393 300.825076 54.0770378 300.825076 56.2011767 300.825076 58.4138215 300.825076 60.5379604 300.825076 62.7506052 300.825076 64.8747441 300.825076 66.9988831 300.825076 69.2115279 300.825076 71.3356668 300.825076 73.5483116 300.142675 75.6724505 299.574007 77.8850953 298.322939 80.0092343 297.640538 82.1333732 296.389469 84.346018 296.162003 86.4701569 295.365868 88.6828017 293.432399 90.8069406 291.726396 93.0195854 288.883059 95.1437244 285.698522 97.2678633 282.40025 99.4805081 281.035449 101.604647 281.035449 103.817292 278.533312 105.941431 277.737177 108.154076 274.666373 110.278214 271.709303 112.402353 268.297298 114.614998 265.567694 116.739137 264.316626 118.951782 263.634225 121.075921 259.88102 123.288566 255.217947 125.412705 250.896074 127.536844 247.939004 129.749488 246.574202 131.873627 242.707263 134.086272 239.067792 136.210411 237.248056 138.423056 233.949785 140.547195 230.082846 142.671334 228.604311 144.883978 228.376844 147.008117 228.376844 149.220762 228.376844 151.344901 227.239509 153.557546 226.329641 155.681685 225.30604 157.805824 222.576436 160.018469 219.733099 162.142607 215.752427 164.355252 211.316821 166.479391 210.520686 168.692036 210.065752 170.816175 209.497085 172.940314 208.246016 175.152959 207.222415 177.277098 207.222415 179.489742 206.653748 181.613881 205.402679 183.826526 204.492811 185.950665 203.128009 188.16331 201.763208 190.287449 200.284672 192.411588 200.170939 194.624232 200.170939 196.748371 200.057205 198.961016 198.237469 201.085155 195.849066 203.2978 191.868394 205.421939 185.726786 207.546078 182.883449 209.758723 181.746114 211.882862 175.490772 214.095506 168.89423 216.219645 160.364218 218.43229 153.653942 220.556429 149.218336 222.680568 141.370725 224.893213 135.00165 227.017352 130.224844 229.229996 125.22057 231.354135 121.467365 233.56678 116.690559 235.690919 112.141219 237.815058 110.54895 240.027703 109.639082 242.151842 107.93308 244.364486 105.430943 246.488625 103.156274 248.70127 101.222804 250.825409 98.7206675 252.949548 96.9009317 255.162193 95.8773303 257.286332 94.171328 259.498977 93.716394 261.623116 91.5554578 263.83576 89.508255 265.959899 87.5747857 268.084038 86.8923848 270.296683 86.5511843 272.420822 84.7314485 274.633467 82.9117127 276.757606 80.2958425 278.97025 77.4525053 281.094389 73.6993002 283.218528 72.2207648 285.431173 71.0834299 287.555312 68.3538262 289.767957 66.3066235 291.892096 64.3731542 294.104741 62.8946188 296.228879 61.4160835 298.353018 60.7336825 300.565663 60.3924821 302.689802 58.5727463 304.902447 57.3216779 307.026586 55.7294091 309.239231 54.3646072 311.36337 54.3646072 313.487509 52.7723384 315.700153 52.203671 317.824292 48.5641993 320.036937 45.2659282 322.161076 42.7637915 324.373721 40.6028552 326.49786 38.5556524 328.621999 37.532051 330.834643 36.7359166 332.958782 32.641511 335.171427 28.660839 337.295566 25.5900348 339.508211 22.7466976 341.63235 19.3346929 343.756489 17.6286906 345.969134 16.9462897 348.093272 14.3304195 350.305917 12.2832167 352.430056 10.8046814 354.642701 9.32614601 356.76684 8.18881113 358.890979 7.5064102 361.103624 7.16520974 363.227763 4.89053998 365.440407 3.07080417 367.564546 1.59226883 369.777191 0"></polyline>
                    </g>
                    <g transform="translate(142.759839, 276.599843)">
                        <polyline stroke="#FFFFFF" stroke-width="2.5" points="-2.84217094e-14 124.424436 2.12413896 124.424436 4.33678372 124.424436 6.46092268 124.310702 8.67356743 124.310702 10.7977064 124.310702 12.9218454 124.310702 15.1344901 124.310702 17.2586291 124.310702 19.4712738 124.310702 21.5954128 124.310702 23.8080575 124.310702 25.9321965 124.310702 28.0563355 124.310702 30.2689802 124.310702 32.3931192 124.310702 34.6057639 124.310702 36.7299029 124.310702 38.9425476 124.310702 41.0666866 124.310702 43.1908256 124.310702 45.4034703 124.310702 47.5276093 124.310702 49.740254 124.310702 51.864393 124.310702 54.0770378 124.310702 56.2011767 124.310702 58.3253157 124.310702 64.8747441 124.310702 66.9988831 124.310702 69.2115279 124.310702 71.3356668 124.310702 73.4598058 124.310702 75.6724505 124.310702 77.7965895 124.310702 80.0092343 124.310702 82.1333732 124.310702 84.346018 124.310702 86.4701569 124.310702 88.5942959 124.310702 90.8069406 124.310702 95.1437244 124.310702 97.2678633 124.310702 99.4805081 124.310702 101.604647 124.310702 103.728786 124.310702 105.941431 124.310702 108.06557 124.310702 110.278214 124.310702 112.402353 124.310702 114.614998 124.310702 116.739137 124.310702 118.863276 124.310702 121.075921 124.310702 123.20006 124.310702 125.412705 124.310702 127.536844 123.059634 129.749488 122.718433 131.873627 122.2635 133.997766 121.922299 136.210411 121.694832 138.33455 121.694832 140.547195 121.239898 142.671334 120.898698 144.883978 120.557497 147.008117 120.216297 149.132256 120.102563 151.344901 120.102563 153.46904 120.102563 155.681685 119.875096 157.805824 119.647629 160.018469 119.420162 162.142607 119.306429 164.266746 119.078962 166.479391 119.078962 168.60353 119.078962 170.816175 118.965228 172.940314 118.851495 175.152959 118.851495 177.277098 118.624028 179.401237 118.510294 181.613881 118.510294 183.73802 118.510294 185.950665 118.396561 188.074804 118.396561 190.287449 118.282827 192.411588 118.282827 194.535727 118.169094 196.748371 118.169094 198.87251 118.169094 201.085155 118.05536 203.209294 118.05536 205.421939 118.05536 207.546078 118.05536 211.882862 117.827893 214.007 117.827893 216.219645 117.827893 218.343784 117.600426 220.556429 117.37296 222.680568 117.259226 224.804707 116.918026 229.141491 116.804292 231.354135 116.463092 233.478274 115.894424 235.690919 115.325757 237.815058 114.757089 239.939197 114.188422 242.151842 114.188422 244.275981 114.074688 248.612764 113.392287 250.825409 112.937353 252.949548 112.82362 255.073687 112.368686 257.286332 112.368686 259.410471 112.368686 261.623116 112.027486 263.747255 111.800019 265.959899 111.572552 268.084038 111.345085 270.296683 111.117618 272.420822 111.003884 274.544961 110.890151 276.757606 110.54895 278.881745 110.435217 281.094389 110.20775 283.218528 109.980283 285.431173 109.639082 287.555312 109.525349 289.679451 109.411615 291.892096 108.956681 294.016235 108.27428 298.353018 105.65841 300.565663 103.838674 302.689802 103.383741 304.813941 103.04254 307.026586 101.791472 309.150725 99.8580024 311.36337 97.6970661 313.487509 95.3086629 315.700153 92.6927926 317.824292 91.8966582 319.948431 91.4417243 322.161076 89.280788 324.285215 87.2335852 326.49786 85.1863824 328.621999 83.0254462 330.834643 80.5233094 332.958782 79.499708 335.082921 78.8173071 337.295566 76.6563709 339.419705 74.3817011 341.63235 72.1070313 343.756489 70.0598286 345.969134 68.1263593 348.093272 67.1027579 350.217411 66.4203569 358.890979 57.4354114 361.103624 54.8195412 363.227763 53.7959398 365.351902 53.1135389 367.564546 51.1800696 369.688685 49.3603338 371.90133 48.5641993 374.025469 46.63073 376.238114 44.6972607 378.362253 43.7873928 380.486392 43.3324589 382.699036 41.5127231 384.823175 39.8067208 387.03582 38.1007184 389.159959 36.2809826 391.372604 34.2337799 393.496743 33.323912 395.620882 32.641511 397.833527 31.0492422 399.957665 29.4569734 402.17031 27.978438 404.294449 26.3861692 406.507094 24.5664334 408.631233 23.6565655 410.755372 22.9741646 412.968017 21.3818957 415.092156 19.5621599 417.3048 17.8561576 419.428939 16.0364218 421.641584 13.8754855 423.765723 12.9656176 425.889862 12.3969502 428.102507 10.8046814 430.226646 9.32614601 432.43929 8.07507764 434.563429 6.82400927 436.776074 5.57294091 438.900213 5.11800696 441.024352 4.663073 443.236997 3.63947161 445.361136 2.50213673 447.573781 2.04720278 449.69792 1.02360139 451.910564 0"></polyline>
                        <polyline stroke="#287669" stroke-width="1.5" points="-2.84217094e-14 124.424436 2.12413896 124.424436 4.33678372 124.424436 6.46092268 124.310702 8.67356743 124.310702 10.7977064 124.310702 12.9218454 124.310702 15.1344901 124.310702 17.2586291 124.310702 19.4712738 124.310702 21.5954128 124.310702 23.8080575 124.310702 25.9321965 124.310702 28.0563355 124.310702 30.2689802 124.310702 32.3931192 124.310702 34.6057639 124.310702 36.7299029 124.310702 38.9425476 124.310702 41.0666866 124.310702 43.1908256 124.310702 45.4034703 124.310702 47.5276093 124.310702 49.740254 124.310702 51.864393 124.310702 54.0770378 124.310702 56.2011767 124.310702 58.3253157 124.310702 64.8747441 124.310702 66.9988831 124.310702 69.2115279 124.310702 71.3356668 124.310702 73.4598058 124.310702 75.6724505 124.310702 77.7965895 124.310702 80.0092343 124.310702 82.1333732 124.310702 84.346018 124.310702 86.4701569 124.310702 88.5942959 124.310702 90.8069406 124.310702 95.1437244 124.310702 97.2678633 124.310702 99.4805081 124.310702 101.604647 124.310702 103.728786 124.310702 105.941431 124.310702 108.06557 124.310702 110.278214 124.310702 112.402353 124.310702 114.614998 124.310702 116.739137 124.310702 118.863276 124.310702 121.075921 124.310702 123.20006 124.310702 125.412705 124.310702 127.536844 123.059634 129.749488 122.718433 131.873627 122.2635 133.997766 121.922299 136.210411 121.694832 138.33455 121.694832 140.547195 121.239898 142.671334 120.898698 144.883978 120.557497 147.008117 120.216297 149.132256 120.102563 151.344901 120.102563 153.46904 120.102563 155.681685 119.875096 157.805824 119.647629 160.018469 119.420162 162.142607 119.306429 164.266746 119.078962 166.479391 119.078962 168.60353 119.078962 170.816175 118.965228 172.940314 118.851495 175.152959 118.851495 177.277098 118.624028 179.401237 118.510294 181.613881 118.510294 183.73802 118.510294 185.950665 118.396561 188.074804 118.396561 190.287449 118.282827 192.411588 118.282827 194.535727 118.169094 196.748371 118.169094 198.87251 118.169094 201.085155 118.05536 203.209294 118.05536 205.421939 118.05536 207.546078 118.05536 211.882862 117.827893 214.007 117.827893 216.219645 117.827893 218.343784 117.600426 220.556429 117.37296 222.680568 117.259226 224.804707 116.918026 229.141491 116.804292 231.354135 116.463092 233.478274 115.894424 235.690919 115.325757 237.815058 114.757089 239.939197 114.188422 242.151842 114.188422 244.275981 114.074688 248.612764 113.392287 250.825409 112.937353 252.949548 112.82362 255.073687 112.368686 257.286332 112.368686 259.410471 112.368686 261.623116 112.027486 263.747255 111.800019 265.959899 111.572552 268.084038 111.345085 270.296683 111.117618 272.420822 111.003884 274.544961 110.890151 276.757606 110.54895 278.881745 110.435217 281.094389 110.20775 283.218528 109.980283 285.431173 109.639082 287.555312 109.525349 289.679451 109.411615 291.892096 108.956681 294.016235 108.27428 298.353018 105.65841 300.565663 103.838674 302.689802 103.383741 304.813941 103.04254 307.026586 101.791472 309.150725 99.8580024 311.36337 97.6970661 313.487509 95.3086629 315.700153 92.6927926 317.824292 91.8966582 319.948431 91.4417243 322.161076 89.280788 324.285215 87.2335852 326.49786 85.1863824 328.621999 83.0254462 330.834643 80.5233094 332.958782 79.499708 335.082921 78.8173071 337.295566 76.6563709 339.419705 74.3817011 341.63235 72.1070313 343.756489 70.0598286 345.969134 68.1263593 348.093272 67.1027579 350.217411 66.4203569 358.890979 57.4354114 361.103624 54.8195412 363.227763 53.7959398 365.351902 53.1135389 367.564546 51.1800696 369.688685 49.3603338 371.90133 48.5641993 374.025469 46.63073 376.238114 44.6972607 378.362253 43.7873928 380.486392 43.3324589 382.699036 41.5127231 384.823175 39.8067208 387.03582 38.1007184 389.159959 36.2809826 391.372604 34.2337799 393.496743 33.323912 395.620882 32.641511 397.833527 31.0492422 399.957665 29.4569734 402.17031 27.978438 404.294449 26.3861692 406.507094 24.5664334 408.631233 23.6565655 410.755372 22.9741646 412.968017 21.3818957 415.092156 19.5621599 417.3048 17.8561576 419.428939 16.0364218 421.641584 13.8754855 423.765723 12.9656176 425.889862 12.3969502 428.102507 10.8046814 430.226646 9.32614601 432.43929 8.07507764 434.563429 6.82400927 436.776074 5.57294091 438.900213 5.11800696 441.024352 4.663073 443.236997 3.63947161 445.361136 2.50213673 447.573781 2.04720278 449.69792 1.02360139 451.910564 0"></polyline>
                    </g>
                    <g transform="translate(112.490859, 111.458818)">
                        <polyline stroke="#FFFFFF" stroke-width="2.5" points="0 289.110526 2.12413896 288.996793 4.33678372 288.883059 6.46092268 288.883059 8.67356743 288.883059 10.7977064 288.769326 12.9218454 288.769326 15.1344901 288.769326 17.2586291 288.769326 19.4712738 288.655592 21.5954128 288.655592 23.8080575 288.541859 25.9321965 287.859458 28.0563355 287.404524 30.2689802 287.063323 32.3931192 286.835857 34.6057639 286.267189 36.7299029 285.812255 38.9425476 285.471055 41.0666866 284.788654 43.1908256 284.447453 45.4034703 283.992519 47.5276093 283.878786 49.740254 283.537585 54.0770378 281.831583 56.2011767 280.466781 58.3253157 278.988246 60.5379604 278.078378 64.8747441 276.599843 66.9988831 275.235041 69.2115279 274.666373 73.4598058 274.097706 75.6724505 273.415305 77.7965895 273.187838 80.0092343 272.619171 82.1333732 272.050503 84.346018 271.368102 86.4701569 270.799435 88.5942959 270.230767 90.8069406 269.775833 92.9310796 269.548366 97.2678633 268.638498 99.4805081 268.183564 101.604647 267.614897 103.728786 266.477562 105.941431 265.340227 108.06557 264.544093 118.863276 257.833817 125.412705 254.876746 127.536844 253.625678 129.749488 252.37461 131.873627 251.351008 136.210411 249.417539 138.33455 248.962605 140.547195 248.507671 142.671334 247.48407 144.883978 246.915402 147.008117 246.233001 151.344901 245.323133 153.46904 245.095666 155.681685 244.868199 157.805824 244.413266 160.018469 244.185799 166.479391 243.275931 168.60353 243.048464 170.816175 242.820997 172.940314 242.479796 175.152959 242.138596 177.277098 241.683662 179.401237 241.228728 181.613881 240.773794 183.73802 240.546327 185.950665 240.205126 188.074804 239.295259 190.287449 238.499124 194.535727 236.451921 196.748371 235.542053 198.87251 235.08712 201.085155 234.518452 207.546078 228.035643 211.882862 223.37257 214.007 221.552834 216.219645 218.823231 218.343784 215.86616 220.556429 213.022823 222.680568 210.406953 224.804707 207.791082 227.017352 205.061479 229.141491 202.331875 231.354135 198.806137 233.478274 194.939198 235.690919 191.527194 237.815058 188.683856 239.939197 185.840519 242.151842 183.793316 244.275981 182.655982 246.488625 181.177446 250.825409 175.035838 257.286332 171.5101 259.410471 161.72902 261.623116 159.11315 265.959899 152.630341 268.084038 149.218336 272.420822 143.872862 274.544961 142.621794 276.757606 140.688325 278.881745 139.55099 283.218528 134.774183 285.342667 132.613247 289.679451 128.746308 291.892096 126.699106 296.228879 122.377233 298.353018 120.557497 302.689802 116.463092 304.813941 115.43949 307.026586 113.733488 309.150725 111.345085 311.36337 109.070415 313.487509 106.909479 317.824292 102.246406 319.948431 101.677738 322.161076 100.312936 324.285215 99.061868 326.49786 97.6970661 328.621999 96.4459977 330.834643 95.1949294 332.958782 94.171328 335.082921 93.8301275 339.419705 92.2378587 341.63235 91.2142573 343.756489 89.8494554 345.969134 88.3709201 348.093272 87.5747857 350.217411 87.0061183 352.430056 85.9825169 354.554195 85.072649 356.76684 84.2765145 361.103624 82.2293118 363.227763 81.4331773 365.351902 81.3194439 367.564546 80.8645099 369.688685 80.2958425 374.025469 79.6134415 376.238114 78.2486397 378.362253 77.5662388 389.159959 68.2400927 391.372604 66.19289 395.620882 65.8516895 397.833527 64.8280881 399.957665 63.5770197 402.17031 62.5534184 406.507094 60.7336825 408.631233 60.1650151 410.755372 59.9375481 412.968017 58.9139467 417.3048 57.0942109 419.428939 56.0706095 423.765723 54.4783407 425.889862 52.4311379 428.102507 50.6114021 432.43929 49.0191333 436.776074 45.0384612 443.236997 40.9440556 447.573781 35.5985817 449.69792 32.4140441 451.910564 29.3432399 454.034703 26.6136362 456.158842 25.2488343 458.371487 22.1780301 460.495626 19.4484264 462.708271 16.7188227 464.83241 14.216686 467.045054 14.216686 471.293332 9.21241252 473.505977 8.53001159 482.179544 0"></polyline>
                        <polyline stroke="#9A5129" stroke-width="1.5" points="0 289.110526 2.12413896 288.996793 4.33678372 288.883059 6.46092268 288.883059 8.67356743 288.883059 10.7977064 288.769326 12.9218454 288.769326 15.1344901 288.769326 17.2586291 288.769326 19.4712738 288.655592 21.5954128 288.655592 23.8080575 288.541859 25.9321965 287.859458 28.0563355 287.404524 30.2689802 287.063323 32.3931192 286.835857 34.6057639 286.267189 36.7299029 285.812255 38.9425476 285.471055 41.0666866 284.788654 43.1908256 284.447453 45.4034703 283.992519 47.5276093 283.878786 49.740254 283.537585 54.0770378 281.831583 56.2011767 280.466781 58.3253157 278.988246 60.5379604 278.078378 64.8747441 276.599843 66.9988831 275.235041 69.2115279 274.666373 73.4598058 274.097706 75.6724505 273.415305 77.7965895 273.187838 80.0092343 272.619171 82.1333732 272.050503 84.346018 271.368102 86.4701569 270.799435 88.5942959 270.230767 90.8069406 269.775833 92.9310796 269.548366 97.2678633 268.638498 99.4805081 268.183564 101.604647 267.614897 103.728786 266.477562 105.941431 265.340227 108.06557 264.544093 118.863276 257.833817 125.412705 254.876746 127.536844 253.625678 129.749488 252.37461 131.873627 251.351008 136.210411 249.417539 138.33455 248.962605 140.547195 248.507671 142.671334 247.48407 144.883978 246.915402 147.008117 246.233001 151.344901 245.323133 153.46904 245.095666 155.681685 244.868199 157.805824 244.413266 160.018469 244.185799 166.479391 243.275931 168.60353 243.048464 170.816175 242.820997 172.940314 242.479796 175.152959 242.138596 177.277098 241.683662 179.401237 241.228728 181.613881 240.773794 183.73802 240.546327 185.950665 240.205126 188.074804 239.295259 190.287449 238.499124 194.535727 236.451921 196.748371 235.542053 198.87251 235.08712 201.085155 234.518452 207.546078 228.035643 211.882862 223.37257 214.007 221.552834 216.219645 218.823231 218.343784 215.86616 220.556429 213.022823 222.680568 210.406953 224.804707 207.791082 227.017352 205.061479 229.141491 202.331875 231.354135 198.806137 233.478274 194.939198 235.690919 191.527194 237.815058 188.683856 239.939197 185.840519 242.151842 183.793316 244.275981 182.655982 246.488625 181.177446 250.825409 175.035838 257.286332 171.5101 259.410471 161.72902 261.623116 159.11315 265.959899 152.630341 268.084038 149.218336 272.420822 143.872862 274.544961 142.621794 276.757606 140.688325 278.881745 139.55099 283.218528 134.774183 285.342667 132.613247 289.679451 128.746308 291.892096 126.699106 296.228879 122.377233 298.353018 120.557497 302.689802 116.463092 304.813941 115.43949 307.026586 113.733488 309.150725 111.345085 311.36337 109.070415 313.487509 106.909479 317.824292 102.246406 319.948431 101.677738 322.161076 100.312936 324.285215 99.061868 326.49786 97.6970661 328.621999 96.4459977 330.834643 95.1949294 332.958782 94.171328 335.082921 93.8301275 339.419705 92.2378587 341.63235 91.2142573 343.756489 89.8494554 345.969134 88.3709201 348.093272 87.5747857 350.217411 87.0061183 352.430056 85.9825169 354.554195 85.072649 356.76684 84.2765145 361.103624 82.2293118 363.227763 81.4331773 365.351902 81.3194439 367.564546 80.8645099 369.688685 80.2958425 374.025469 79.6134415 376.238114 78.2486397 378.362253 77.5662388 389.159959 68.2400927 391.372604 66.19289 395.620882 65.8516895 397.833527 64.8280881 399.957665 63.5770197 402.17031 62.5534184 406.507094 60.7336825 408.631233 60.1650151 410.755372 59.9375481 412.968017 58.9139467 417.3048 57.0942109 419.428939 56.0706095 423.765723 54.4783407 425.889862 52.4311379 428.102507 50.6114021 432.43929 49.0191333 436.776074 45.0384612 443.236997 40.9440556 447.573781 35.5985817 449.69792 32.4140441 451.910564 29.3432399 454.034703 26.6136362 456.158842 25.2488343 458.371487 22.1780301 460.495626 19.4484264 462.708271 16.7188227 464.83241 14.216686 467.045054 14.216686 471.293332 9.21241252 473.505977 8.53001159 482.179544 0"></polyline>
                    </g>
                    <g transform="translate(67.087389, 169.804097)">
                        <polyline stroke="#FFFFFF" stroke-width="2.5" points="0 231.220181 2.12413896 231.220181 4.33678372 231.220181 6.46092268 231.106447 8.58506164 231.106447 10.7977064 230.765247 12.9218454 230.765247 15.1344901 230.765247 17.2586291 230.765247 19.4712738 230.765247 21.5954128 230.651513 23.7195517 230.651513 25.9321965 230.651513 28.0563355 230.651513 30.2689802 230.651513 32.3931192 230.651513 34.6057639 230.651513 36.7299029 230.651513 38.8540419 230.651513 41.0666866 230.651513 43.1908256 230.651513 45.4034703 230.651513 47.5276093 230.651513 49.740254 230.651513 51.864393 230.651513 54.0770378 230.53778 56.2011767 230.53778 58.3253157 230.19658 60.5379604 230.082846 62.6620994 230.082846 64.8747441 229.514179 66.9988831 228.604311 69.2115279 227.694443 71.3356668 226.898308 73.4598058 225.874707 75.6724505 225.760974 77.7965895 225.760974 80.0092343 225.30604 82.1333732 224.851106 84.346018 224.509905 86.4701569 224.168705 88.5942959 224.054971 90.8069406 224.054971 92.9310796 224.054971 95.1437244 223.600037 97.2678633 223.37257 99.4805081 223.03137 101.604647 222.803903 103.728786 222.576436 105.941431 222.462702 108.06557 222.462702 110.278214 222.348969 112.402353 222.121502 114.614998 221.780301 116.739137 221.439101 118.863276 220.984167 121.075921 220.984167 123.20006 220.984167 125.412705 220.642967 127.536844 220.301766 129.749488 219.960566 131.873627 219.619365 133.997766 219.505632 136.210411 219.505632 138.33455 219.505632 140.547195 219.050698 142.671334 218.595764 144.883978 218.027096 147.008117 217.572162 149.132256 216.889761 151.344901 216.889761 153.46904 216.776028 155.681685 216.321094 157.805824 215.979894 160.018469 215.752427 162.142607 215.411226 164.266746 215.070026 166.479391 214.956292 168.60353 214.956292 170.816175 214.615092 172.940314 214.387625 175.152959 214.160158 177.277098 213.932691 179.401237 213.705224 181.613881 213.705224 183.73802 213.705224 185.950665 213.477757 188.074804 213.25029 190.287449 213.022823 192.411588 212.909089 194.535727 212.909089 196.748371 212.795356 198.87251 212.681622 201.085155 212.567889 203.209294 211.999221 205.421939 211.089354 207.546078 210.293219 209.670217 209.952019 211.882862 209.838285 214.007 209.838285 216.219645 209.610818 218.343784 209.497085 220.556429 209.383351 222.680568 209.269618 224.804707 208.35975 227.017352 208.132283 229.141491 208.132283 231.354135 206.08508 233.478274 203.582943 235.690919 201.876941 237.815058 200.625873 239.939197 199.261071 242.151842 199.033604 244.275981 198.91987 246.488625 198.237469 248.612764 197.668802 250.825409 196.986401 252.949548 196.417734 255.073687 195.621599 257.286332 195.394132 259.410471 195.280399 261.623116 195.052932 263.747255 193.68813 265.959899 192.323328 268.084038 191.754661 270.208177 190.844793 272.420822 190.617326 274.544961 190.389859 276.757606 189.593724 278.881745 188.570123 281.094389 187.773989 283.218528 186.864121 285.342667 186.067986 287.555312 185.954253 289.679451 185.726786 291.892096 185.271852 294.016235 184.703184 296.228879 183.793316 298.353018 183.110916 300.477157 182.542248 302.689802 182.428515 304.813941 182.201048 307.026586 181.404913 309.150725 180.608779 311.36337 179.698911 313.487509 177.765442 315.611648 175.604505 317.824292 174.808371 319.948431 174.012237 322.161076 170.941432 324.285215 167.756895 326.49786 164.572357 328.621999 160.705418 330.746138 156.383546 332.958782 155.132478 335.082921 153.426475 337.295566 148.649669 339.419705 143.417928 341.63235 138.641122 343.756489 135.00165 345.969134 131.817112 348.093272 131.020978 350.217411 129.997377 352.430056 127.040306 354.554195 124.87937 356.76684 123.059634 358.890979 121.239898 361.103624 121.012431 363.227763 120.557497 365.351902 119.98883 367.564546 117.941627 369.688685 115.780691 371.90133 112.937353 374.025469 109.525349 376.238114 106.454545 378.362253 105.772144 380.486392 105.203476 382.699036 102.132672 384.823175 99.2893349 387.03582 96.2185308 389.159959 93.4889271 391.372604 91.1005238 393.496743 90.6455899 395.620882 90.1906559 397.833527 87.8022527 399.957665 83.3666466 402.17031 78.4761067 404.294449 75.8602364 406.507094 71.0834299 408.631233 69.4911611 410.755372 67.8988923 412.968017 63.8044867 415.092156 61.9847509 417.3048 60.5062156 419.428939 59.3688807 421.641584 58.2315458 423.765723 57.2079444 425.889862 56.5255435 428.102507 55.2744751 430.226646 53.5684728 432.43929 51.748737 434.563429 50.0427347 436.776074 48.9053998 438.900213 48.5641993 441.024352 48.4504658 443.236997 47.4268645 445.361136 46.4032631 447.573781 45.3796617 449.69792 44.9247277 451.910564 44.3560603 454.034703 43.9011263 456.158842 42.5363245 458.371487 41.3989896 460.495626 37.1908505 462.708271 32.9827115 464.83241 32.9827115 467.045054 31.1629757 469.169193 30.8217752 471.293332 30.5943082 473.505977 28.205905 475.630116 26.2724357 477.842761 24.3389664 479.9669 23.4290985 482.179544 22.5192306 484.303683 22.2917636 486.427822 22.1780301 488.640467 20.3582943 490.764606 19.4484264 492.977251 18.5385585 495.10139 17.8561576 497.314035 16.9462897 499.438174 16.8325562 501.562313 16.6050892 503.774957 15.6952213 505.899096 14.216686 508.111741 12.7381506 510.23588 11.1458818 512.448525 9.55361298 514.572664 9.32614601 516.696803 8.98494554 518.909447 6.93774276 521.033586 4.43560603 523.246231 2.72960371 525.37037 1.25106837 527.583015 0"></polyline>
                        <polyline stroke="#D73C50" stroke-width="1.5" points="0 231.220181 2.12413896 231.220181 4.33678372 231.220181 6.46092268 231.106447 8.58506164 231.106447 10.7977064 230.765247 12.9218454 230.765247 15.1344901 230.765247 17.2586291 230.765247 19.4712738 230.765247 21.5954128 230.651513 23.7195517 230.651513 25.9321965 230.651513 28.0563355 230.651513 30.2689802 230.651513 32.3931192 230.651513 34.6057639 230.651513 36.7299029 230.651513 38.8540419 230.651513 41.0666866 230.651513 43.1908256 230.651513 45.4034703 230.651513 47.5276093 230.651513 49.740254 230.651513 51.864393 230.651513 54.0770378 230.53778 56.2011767 230.53778 58.3253157 230.19658 60.5379604 230.082846 62.6620994 230.082846 64.8747441 229.514179 66.9988831 228.604311 69.2115279 227.694443 71.3356668 226.898308 73.4598058 225.874707 75.6724505 225.760974 77.7965895 225.760974 80.0092343 225.30604 82.1333732 224.851106 84.346018 224.509905 86.4701569 224.168705 88.5942959 224.054971 90.8069406 224.054971 92.9310796 224.054971 95.1437244 223.600037 97.2678633 223.37257 99.4805081 223.03137 101.604647 222.803903 103.728786 222.576436 105.941431 222.462702 108.06557 222.462702 110.278214 222.348969 112.402353 222.121502 114.614998 221.780301 116.739137 221.439101 118.863276 220.984167 121.075921 220.984167 123.20006 220.984167 125.412705 220.642967 127.536844 220.301766 129.749488 219.960566 131.873627 219.619365 133.997766 219.505632 136.210411 219.505632 138.33455 219.505632 140.547195 219.050698 142.671334 218.595764 144.883978 218.027096 147.008117 217.572162 149.132256 216.889761 151.344901 216.889761 153.46904 216.776028 155.681685 216.321094 157.805824 215.979894 160.018469 215.752427 162.142607 215.411226 164.266746 215.070026 166.479391 214.956292 168.60353 214.956292 170.816175 214.615092 172.940314 214.387625 175.152959 214.160158 177.277098 213.932691 179.401237 213.705224 181.613881 213.705224 183.73802 213.705224 185.950665 213.477757 188.074804 213.25029 190.287449 213.022823 192.411588 212.909089 194.535727 212.909089 196.748371 212.795356 198.87251 212.681622 201.085155 212.567889 203.209294 211.999221 205.421939 211.089354 207.546078 210.293219 209.670217 209.952019 211.882862 209.838285 214.007 209.838285 216.219645 209.610818 218.343784 209.497085 220.556429 209.383351 222.680568 209.269618 224.804707 208.35975 227.017352 208.132283 229.141491 208.132283 231.354135 206.08508 233.478274 203.582943 235.690919 201.876941 237.815058 200.625873 239.939197 199.261071 242.151842 199.033604 244.275981 198.91987 246.488625 198.237469 248.612764 197.668802 250.825409 196.986401 252.949548 196.417734 255.073687 195.621599 257.286332 195.394132 259.410471 195.280399 261.623116 195.052932 263.747255 193.68813 265.959899 192.323328 268.084038 191.754661 270.208177 190.844793 272.420822 190.617326 274.544961 190.389859 276.757606 189.593724 278.881745 188.570123 281.094389 187.773989 283.218528 186.864121 285.342667 186.067986 287.555312 185.954253 289.679451 185.726786 291.892096 185.271852 294.016235 184.703184 296.228879 183.793316 298.353018 183.110916 300.477157 182.542248 302.689802 182.428515 304.813941 182.201048 307.026586 181.404913 309.150725 180.608779 311.36337 179.698911 313.487509 177.765442 315.611648 175.604505 317.824292 174.808371 319.948431 174.012237 322.161076 170.941432 324.285215 167.756895 326.49786 164.572357 328.621999 160.705418 330.746138 156.383546 332.958782 155.132478 335.082921 153.426475 337.295566 148.649669 339.419705 143.417928 341.63235 138.641122 343.756489 135.00165 345.969134 131.817112 348.093272 131.020978 350.217411 129.997377 352.430056 127.040306 354.554195 124.87937 356.76684 123.059634 358.890979 121.239898 361.103624 121.012431 363.227763 120.557497 365.351902 119.98883 367.564546 117.941627 369.688685 115.780691 371.90133 112.937353 374.025469 109.525349 376.238114 106.454545 378.362253 105.772144 380.486392 105.203476 382.699036 102.132672 384.823175 99.2893349 387.03582 96.2185308 389.159959 93.4889271 391.372604 91.1005238 393.496743 90.6455899 395.620882 90.1906559 397.833527 87.8022527 399.957665 83.3666466 402.17031 78.4761067 404.294449 75.8602364 406.507094 71.0834299 408.631233 69.4911611 410.755372 67.8988923 412.968017 63.8044867 415.092156 61.9847509 417.3048 60.5062156 419.428939 59.3688807 421.641584 58.2315458 423.765723 57.2079444 425.889862 56.5255435 428.102507 55.2744751 430.226646 53.5684728 432.43929 51.748737 434.563429 50.0427347 436.776074 48.9053998 438.900213 48.5641993 441.024352 48.4504658 443.236997 47.4268645 445.361136 46.4032631 447.573781 45.3796617 449.69792 44.9247277 451.910564 44.3560603 454.034703 43.9011263 456.158842 42.5363245 458.371487 41.3989896 460.495626 37.1908505 462.708271 32.9827115 464.83241 32.9827115 467.045054 31.1629757 469.169193 30.8217752 471.293332 30.5943082 473.505977 28.205905 475.630116 26.2724357 477.842761 24.3389664 479.9669 23.4290985 482.179544 22.5192306 484.303683 22.2917636 486.427822 22.1780301 488.640467 20.3582943 490.764606 19.4484264 492.977251 18.5385585 495.10139 17.8561576 497.314035 16.9462897 499.438174 16.8325562 501.562313 16.6050892 503.774957 15.6952213 505.899096 14.216686 508.111741 12.7381506 510.23588 11.1458818 512.448525 9.55361298 514.572664 9.32614601 516.696803 8.98494554 518.909447 6.93774276 521.033586 4.43560603 523.246231 2.72960371 525.37037 1.25106837 527.583015 0"></polyline>
                    </g>
                    <g transform="translate(62.750605, 10.008547)">
                        <polyline stroke="#FFFFFF" stroke-width="2.5" points="2.84217094e-14 390.674531 2.12413896 390.560797 4.33678372 390.560797 6.46092268 390.560797 8.67356743 390.560797 10.7977064 390.447064 12.9218454 390.105864 15.1344901 390.105864 17.2586291 390.105864 19.4712738 390.105864 21.5954128 390.105864 23.8080575 390.105864 25.9321965 390.105864 28.0563355 390.105864 30.2689802 390.105864 32.3931192 390.105864 34.6057639 390.105864 36.7299029 390.105864 38.9425476 390.105864 41.0666866 390.105864 43.1908256 390.105864 45.4034703 390.105864 60.5379604 382.371986 75.6724505 375.775444 77.7965895 374.638109 80.0092343 374.183175 82.1333732 374.069442 84.346018 374.069442 90.8069406 374.069442 99.4805081 371.453572 101.604647 369.065168 103.817292 367.8141 105.941431 366.790499 108.06557 366.790499 110.278214 366.790499 114.614998 364.515829 116.739137 362.809826 118.951782 361.672492 121.075921 360.64889 123.20006 360.535157 125.412705 360.535157 127.536844 360.535157 129.749488 360.30769 131.873627 360.193956 134.086272 360.080223 136.210411 359.966489 138.33455 359.852756 140.547195 359.852756 142.671334 359.852756 144.883978 359.739022 147.008117 359.739022 149.220762 359.397822 151.344901 359.397822 153.46904 359.284088 157.805824 359.284088 160.018469 359.056621 162.142607 359.056621 164.355252 355.41715 166.479391 352.005145 168.60353 349.389275 170.816175 348.59314 172.940314 348.59314 175.152959 348.25194 177.277098 347.91074 179.489742 347.91074 181.613881 346.773405 183.73802 345.522336 185.950665 344.726202 188.074804 344.726202 190.287449 344.612468 192.411588 344.612468 194.624232 342.337799 196.748371 340.176862 198.87251 338.47086 201.085155 338.357127 203.209294 338.243393 205.421939 336.19619 207.546078 334.717655 209.758723 334.262721 216.219645 329.599648 218.343784 328.576047 220.556429 328.234846 222.680568 327.893646 224.893213 327.097511 227.017352 326.756311 229.141491 326.187643 233.478274 326.07391 235.690919 325.618976 237.815058 325.391509 240.027703 323.344306 242.151842 321.297103 244.275981 319.591101 246.488625 318.681233 248.612764 318.681233 250.825409 318.453766 252.949548 318.340033 255.162193 315.724162 257.286332 313.222026 259.410471 311.40229 261.623116 310.606155 265.959899 309.923755 268.084038 309.468821 270.296683 307.990285 272.420822 306.625483 274.544961 305.374415 281.094389 303.89588 283.218528 303.440946 285.431173 302.076144 287.555312 300.142675 294.016235 297.526804 296.228879 296.389469 298.353018 295.593335 300.565663 294.456 302.689802 292.636264 304.813941 290.816529 309.150725 289.906661 311.36337 288.541859 313.487509 287.29079 315.700153 285.925989 317.824292 284.561187 319.948431 283.196385 326.49786 281.831583 328.621999 280.580515 330.834643 279.556913 332.958782 278.760779 335.082921 277.623444 337.295566 277.395977 339.419705 277.282244 345.969134 276.372376 348.093272 276.031175 350.305917 275.576241 352.430056 275.348774 354.554195 275.121307 356.76684 274.780107 358.890979 274.55264 361.103624 272.846637 363.227763 271.140635 365.440407 270.344501 367.564546 268.183564 369.688685 267.273697 374.025469 265.11276 376.238114 259.994753 378.362253 254.194345 380.574897 250.327407 391.372604 228.718044 393.496743 216.548561 415.092156 129.542443 417.3048 119.98883 419.428939 119.533896 421.641584 114.757089 423.765723 107.023212 425.978368 98.606934 428.102507 90.6455899 430.226646 81.6606443 432.43929 76.4289039 434.563429 74.2679676 436.776074 74.1542341 438.900213 68.5812932 441.112858 62.5534184 443.236997 56.7530105 445.361136 51.4075365 447.573781 45.7208621 449.69792 44.8109942 451.910564 43.6736594 454.034703 39.3517868 456.247348 33.4376454 458.371487 33.323912 460.495626 32.3003106 462.708271 31.7316431 464.83241 31.0492422 467.045054 28.3196385 469.169193 27.978438 471.381838 25.2488343 473.505977 23.8840325 475.630116 23.315365 477.842761 23.2016315 479.9669 22.7466976 482.179544 22.1780301 484.303683 19.9033604 488.640467 19.3346929 490.764606 12.0557497 492.977251 11.6008158 495.10139 11.1458818 497.314035 10.6909479 499.438174 9.32614601 501.650818 8.18881113 503.774957 7.05147625 505.899096 6.48280881 508.111741 5.6866744 512.448525 5.34547393 514.572664 4.43560603 516.785308 3.63947161 518.909447 2.50213673 521.033586 2.50213673 523.246231 2.16093627 525.37037 1.70600232 527.583015 1.02360139 529.707154 0.682400927 531.919799 0"></polyline>
                        <polyline stroke="#0F739C" stroke-width="1.5" points="2.84217094e-14 390.674531 2.12413896 390.560797 4.33678372 390.560797 6.46092268 390.560797 8.67356743 390.560797 10.7977064 390.447064 12.9218454 390.105864 15.1344901 390.105864 17.2586291 390.105864 19.4712738 390.105864 21.5954128 390.105864 23.8080575 390.105864 25.9321965 390.105864 28.0563355 390.105864 30.2689802 390.105864 32.3931192 390.105864 34.6057639 390.105864 36.7299029 390.105864 38.9425476 390.105864 41.0666866 390.105864 43.1908256 390.105864 45.4034703 390.105864 60.5379604 382.371986 75.6724505 375.775444 77.7965895 374.638109 80.0092343 374.183175 82.1333732 374.069442 84.346018 374.069442 90.8069406 374.069442 99.4805081 371.453572 101.604647 369.065168 103.817292 367.8141 105.941431 366.790499 108.06557 366.790499 110.278214 366.790499 114.614998 364.515829 116.739137 362.809826 118.951782 361.672492 121.075921 360.64889 123.20006 360.535157 125.412705 360.535157 127.536844 360.535157 129.749488 360.30769 131.873627 360.193956 134.086272 360.080223 136.210411 359.966489 138.33455 359.852756 140.547195 359.852756 142.671334 359.852756 144.883978 359.739022 147.008117 359.739022 149.220762 359.397822 151.344901 359.397822 153.46904 359.284088 157.805824 359.284088 160.018469 359.056621 162.142607 359.056621 164.355252 355.41715 166.479391 352.005145 168.60353 349.389275 170.816175 348.59314 172.940314 348.59314 175.152959 348.25194 177.277098 347.91074 179.489742 347.91074 181.613881 346.773405 183.73802 345.522336 185.950665 344.726202 188.074804 344.726202 190.287449 344.612468 192.411588 344.612468 194.624232 342.337799 196.748371 340.176862 198.87251 338.47086 201.085155 338.357127 203.209294 338.243393 205.421939 336.19619 207.546078 334.717655 209.758723 334.262721 216.219645 329.599648 218.343784 328.576047 220.556429 328.234846 222.680568 327.893646 224.893213 327.097511 227.017352 326.756311 229.141491 326.187643 233.478274 326.07391 235.690919 325.618976 237.815058 325.391509 240.027703 323.344306 242.151842 321.297103 244.275981 319.591101 246.488625 318.681233 248.612764 318.681233 250.825409 318.453766 252.949548 318.340033 255.162193 315.724162 257.286332 313.222026 259.410471 311.40229 261.623116 310.606155 265.959899 309.923755 268.084038 309.468821 270.296683 307.990285 272.420822 306.625483 274.544961 305.374415 281.094389 303.89588 283.218528 303.440946 285.431173 302.076144 287.555312 300.142675 294.016235 297.526804 296.228879 296.389469 298.353018 295.593335 300.565663 294.456 302.689802 292.636264 304.813941 290.816529 309.150725 289.906661 311.36337 288.541859 313.487509 287.29079 315.700153 285.925989 317.824292 284.561187 319.948431 283.196385 326.49786 281.831583 328.621999 280.580515 330.834643 279.556913 332.958782 278.760779 335.082921 277.623444 337.295566 277.395977 339.419705 277.282244 345.969134 276.372376 348.093272 276.031175 350.305917 275.576241 352.430056 275.348774 354.554195 275.121307 356.76684 274.780107 358.890979 274.55264 361.103624 272.846637 363.227763 271.140635 365.440407 270.344501 367.564546 268.183564 369.688685 267.273697 374.025469 265.11276 376.238114 259.994753 378.362253 254.194345 380.574897 250.327407 391.372604 228.718044 393.496743 216.548561 415.092156 129.542443 417.3048 119.98883 419.428939 119.533896 421.641584 114.757089 423.765723 107.023212 425.978368 98.606934 428.102507 90.6455899 430.226646 81.6606443 432.43929 76.4289039 434.563429 74.2679676 436.776074 74.1542341 438.900213 68.5812932 441.112858 62.5534184 443.236997 56.7530105 445.361136 51.4075365 447.573781 45.7208621 449.69792 44.8109942 451.910564 43.6736594 454.034703 39.3517868 456.247348 33.4376454 458.371487 33.323912 460.495626 32.3003106 462.708271 31.7316431 464.83241 31.0492422 467.045054 28.3196385 469.169193 27.978438 471.381838 25.2488343 473.505977 23.8840325 475.630116 23.315365 477.842761 23.2016315 479.9669 22.7466976 482.179544 22.1780301 484.303683 19.9033604 488.640467 19.3346929 490.764606 12.0557497 492.977251 11.6008158 495.10139 11.1458818 497.314035 10.6909479 499.438174 9.32614601 501.650818 8.18881113 503.774957 7.05147625 505.899096 6.48280881 508.111741 5.6866744 512.448525 5.34547393 514.572664 4.43560603 516.785308 3.63947161 518.909447 2.50213673 521.033586 2.50213673 523.246231 2.16093627 525.37037 1.70600232 527.583015 1.02360139 529.707154 0.682400927 531.919799 0"></polyline>
                    </g>
                    <g transform="translate(34.605764, 29.911907)">
                        <polyline stroke="#FFFFFF" stroke-width="2.5" points="0 371.112371 2.21264475 370.998638 4.33678372 370.998638 6.54942847 370.998638 8.67356743 370.998638 10.7977064 370.771171 13.0103511 370.771171 15.1344901 370.543704 17.3471349 370.42997 19.4712738 370.42997 21.6839186 370.202503 23.8080575 369.178902 25.9321965 368.610234 28.1448413 368.041567 30.2689802 367.586633 32.481625 367.245432 34.6057639 367.131699 36.8184087 366.790499 38.9425476 366.221831 41.0666866 365.653164 43.2793314 365.084496 45.4034703 364.743296 47.6161151 364.629562 49.740254 364.515829 51.9528988 364.174628 54.0770378 363.719694 56.2011767 363.26476 58.4138215 362.696093 60.5379604 362.241159 62.7506052 361.899959 64.8747441 361.899959 67.0873889 361.445025 69.2115279 360.876357 71.3356668 360.30769 73.5483116 359.852756 75.6724505 359.284088 77.8850953 359.056621 80.0092343 358.942888 82.221879 358.601687 84.346018 358.260487 86.5586627 357.805553 88.6828017 357.464353 90.8069406 357.123152 93.0195854 357.009419 95.1437244 357.009419 97.3563691 356.668218 99.4805081 356.327018 101.693153 355.985817 103.817292 355.644617 105.941431 355.303416 108.154076 355.189683 110.278214 355.075949 112.490859 354.734749 114.614998 354.166081 116.827643 353.824881 118.951782 353.256213 121.075921 353.14248 123.288566 352.915013 125.412705 352.801279 127.625349 352.005145 129.749488 351.095277 131.962133 350.299143 134.086272 349.275541 136.210411 347.797006 138.423056 347.342072 140.547195 347.114605 142.759839 345.863537 144.883978 344.726202 147.096623 343.3614 149.220762 341.882865 151.344901 339.835662 153.557546 338.698327 155.681685 338.357127 157.89433 336.309924 160.018469 334.603921 162.231113 333.807787 164.355252 332.329252 166.479391 329.258448 168.692036 328.462313 170.816175 328.234846 173.02882 326.187643 175.152959 323.344306 177.365603 321.297103 179.489742 319.477368 181.613881 317.657632 183.826526 317.202698 185.950665 317.088964 188.16331 315.610429 190.287449 314.131894 192.500093 312.994559 194.624232 311.970957 196.748371 311.061089 198.961016 310.833622 201.085155 310.719889 203.2978 309.582554 205.421939 308.558953 207.634584 307.535351 209.758723 307.080417 211.882862 306.398016 214.095506 306.170549 216.219645 305.829349 218.43229 304.919481 220.556429 304.009613 222.769074 303.327212 224.893213 302.303611 227.017352 301.507476 229.229996 301.052542 231.354135 300.256408 233.56678 299.232807 235.690919 298.209205 237.903564 297.526804 240.027703 296.844403 242.151842 295.934536 244.364486 295.707069 246.488625 295.593335 248.70127 295.024668 250.825409 294.342267 253.038054 293.318665 255.162193 293.091198 257.286332 292.749998 259.498977 292.522531 261.623116 292.295064 263.83576 291.953863 265.959899 291.385196 268.172544 290.930262 270.296683 290.475328 272.420822 290.134128 274.633467 290.020394 276.757606 289.906661 278.97025 289.679194 281.094389 289.337993 283.307034 288.996793 285.431173 288.541859 287.555312 288.086925 289.767957 287.859458 291.892096 287.745724 294.104741 287.404524 296.228879 286.835857 298.441524 286.380923 300.565663 285.243588 302.689802 284.67492 304.902447 284.219986 307.026586 283.992519 309.239231 282.968918 311.36337 281.376649 313.576014 280.353048 315.700153 279.329446 317.824292 278.305845 320.036937 277.737177 322.161076 277.509711 324.373721 276.258642 326.49786 274.666373 328.710504 272.619171 330.834643 270.458234 332.958782 268.865965 335.171427 267.614897 337.295566 267.159963 339.508211 265.567694 341.63235 263.634225 343.844995 261.359555 345.969134 259.312352 348.093272 257.151416 350.305917 256.014081 352.430056 255.672881 354.642701 254.080612 356.76684 251.805942 358.979485 249.190072 361.103624 246.233001 363.227763 244.526999 365.440407 243.503398 367.564546 243.162197 369.777191 241.342461 371.90133 239.181525 374.113975 236.224454 376.238114 233.722318 378.450758 231.106447 380.574897 229.741646 382.699036 229.514179 384.911681 227.580709 387.03582 225.30604 389.248465 222.121502 391.372604 219.960566 393.585249 217.572162 395.709388 216.548561 397.833527 216.093627 400.046171 213.932691 402.17031 211.203087 404.382955 208.928417 406.507094 206.426281 408.719739 203.696677 410.843878 202.218142 412.968017 201.876941 415.180661 198.806137 417.3048 194.825465 419.517445 191.982128 421.641584 188.342656 423.854229 185.271852 425.978368 183.793316 428.102507 183.224649 430.315151 180.381312 432.43929 176.969307 434.651935 174.12597 436.776074 170.941432 438.988719 167.643161 441.112858 165.482225 443.236997 164.572357 445.449642 162.07022 447.573781 157.634614 449.786425 154.108876 451.910564 150.128204 454.123209 146.033798 456.247348 143.759129 458.371487 143.076728 460.584132 140.574591 462.708271 139.437256 464.920915 135.684051 467.045054 130.793511 469.257699 125.334304 471.381838 122.377233 473.505977 121.353632 475.718622 117.827893 477.842761 112.937353 480.055406 108.956681 482.179544 105.65841 484.392189 100.312936 486.516328 97.9245331 488.640467 97.1283987 490.853112 94.5125285 492.977251 90.3043894 495.189896 86.3237173 497.314035 82.1155783 499.526679 77.9074392 501.650818 75.6327695 503.774957 74.4954346 505.987602 72.1070313 508.111741 67.6714253 510.324386 63.8044867 512.448525 59.8238146 514.661169 55.2744751 516.785308 52.8860719 518.909447 52.203671 521.122092 49.9290012 523.246231 46.858197 525.458876 43.1049919 527.583015 39.5792538 529.79566 35.8260487 531.919799 33.7788459 534.043937 32.1865771 536.256582 30.3668413 538.380721 29.5707069 540.593366 27.7509711 542.717505 22.8604311 544.93015 18.652292 547.054289 15.9226883 549.178428 14.8990869 551.391072 12.8518841 553.515211 8.98494554 555.727856 4.89053998 557.851995 2.72960371 560.06464 0"></polyline>
                        <polyline stroke="#C05917" stroke-width="1.5" points="0 371.112371 2.21264475 370.998638 4.33678372 370.998638 6.54942847 370.998638 8.67356743 370.998638 10.7977064 370.771171 13.0103511 370.771171 15.1344901 370.543704 17.3471349 370.42997 19.4712738 370.42997 21.6839186 370.202503 23.8080575 369.178902 25.9321965 368.610234 28.1448413 368.041567 30.2689802 367.586633 32.481625 367.245432 34.6057639 367.131699 36.8184087 366.790499 38.9425476 366.221831 41.0666866 365.653164 43.2793314 365.084496 45.4034703 364.743296 47.6161151 364.629562 49.740254 364.515829 51.9528988 364.174628 54.0770378 363.719694 56.2011767 363.26476 58.4138215 362.696093 60.5379604 362.241159 62.7506052 361.899959 64.8747441 361.899959 67.0873889 361.445025 69.2115279 360.876357 71.3356668 360.30769 73.5483116 359.852756 75.6724505 359.284088 77.8850953 359.056621 80.0092343 358.942888 82.221879 358.601687 84.346018 358.260487 86.5586627 357.805553 88.6828017 357.464353 90.8069406 357.123152 93.0195854 357.009419 95.1437244 357.009419 97.3563691 356.668218 99.4805081 356.327018 101.693153 355.985817 103.817292 355.644617 105.941431 355.303416 108.154076 355.189683 110.278214 355.075949 112.490859 354.734749 114.614998 354.166081 116.827643 353.824881 118.951782 353.256213 121.075921 353.14248 123.288566 352.915013 125.412705 352.801279 127.625349 352.005145 129.749488 351.095277 131.962133 350.299143 134.086272 349.275541 136.210411 347.797006 138.423056 347.342072 140.547195 347.114605 142.759839 345.863537 144.883978 344.726202 147.096623 343.3614 149.220762 341.882865 151.344901 339.835662 153.557546 338.698327 155.681685 338.357127 157.89433 336.309924 160.018469 334.603921 162.231113 333.807787 164.355252 332.329252 166.479391 329.258448 168.692036 328.462313 170.816175 328.234846 173.02882 326.187643 175.152959 323.344306 177.365603 321.297103 179.489742 319.477368 181.613881 317.657632 183.826526 317.202698 185.950665 317.088964 188.16331 315.610429 190.287449 314.131894 192.500093 312.994559 194.624232 311.970957 196.748371 311.061089 198.961016 310.833622 201.085155 310.719889 203.2978 309.582554 205.421939 308.558953 207.634584 307.535351 209.758723 307.080417 211.882862 306.398016 214.095506 306.170549 216.219645 305.829349 218.43229 304.919481 220.556429 304.009613 222.769074 303.327212 224.893213 302.303611 227.017352 301.507476 229.229996 301.052542 231.354135 300.256408 233.56678 299.232807 235.690919 298.209205 237.903564 297.526804 240.027703 296.844403 242.151842 295.934536 244.364486 295.707069 246.488625 295.593335 248.70127 295.024668 250.825409 294.342267 253.038054 293.318665 255.162193 293.091198 257.286332 292.749998 259.498977 292.522531 261.623116 292.295064 263.83576 291.953863 265.959899 291.385196 268.172544 290.930262 270.296683 290.475328 272.420822 290.134128 274.633467 290.020394 276.757606 289.906661 278.97025 289.679194 281.094389 289.337993 283.307034 288.996793 285.431173 288.541859 287.555312 288.086925 289.767957 287.859458 291.892096 287.745724 294.104741 287.404524 296.228879 286.835857 298.441524 286.380923 300.565663 285.243588 302.689802 284.67492 304.902447 284.219986 307.026586 283.992519 309.239231 282.968918 311.36337 281.376649 313.576014 280.353048 315.700153 279.329446 317.824292 278.305845 320.036937 277.737177 322.161076 277.509711 324.373721 276.258642 326.49786 274.666373 328.710504 272.619171 330.834643 270.458234 332.958782 268.865965 335.171427 267.614897 337.295566 267.159963 339.508211 265.567694 341.63235 263.634225 343.844995 261.359555 345.969134 259.312352 348.093272 257.151416 350.305917 256.014081 352.430056 255.672881 354.642701 254.080612 356.76684 251.805942 358.979485 249.190072 361.103624 246.233001 363.227763 244.526999 365.440407 243.503398 367.564546 243.162197 369.777191 241.342461 371.90133 239.181525 374.113975 236.224454 376.238114 233.722318 378.450758 231.106447 380.574897 229.741646 382.699036 229.514179 384.911681 227.580709 387.03582 225.30604 389.248465 222.121502 391.372604 219.960566 393.585249 217.572162 395.709388 216.548561 397.833527 216.093627 400.046171 213.932691 402.17031 211.203087 404.382955 208.928417 406.507094 206.426281 408.719739 203.696677 410.843878 202.218142 412.968017 201.876941 415.180661 198.806137 417.3048 194.825465 419.517445 191.982128 421.641584 188.342656 423.854229 185.271852 425.978368 183.793316 428.102507 183.224649 430.315151 180.381312 432.43929 176.969307 434.651935 174.12597 436.776074 170.941432 438.988719 167.643161 441.112858 165.482225 443.236997 164.572357 445.449642 162.07022 447.573781 157.634614 449.786425 154.108876 451.910564 150.128204 454.123209 146.033798 456.247348 143.759129 458.371487 143.076728 460.584132 140.574591 462.708271 139.437256 464.920915 135.684051 467.045054 130.793511 469.257699 125.334304 471.381838 122.377233 473.505977 121.353632 475.718622 117.827893 477.842761 112.937353 480.055406 108.956681 482.179544 105.65841 484.392189 100.312936 486.516328 97.9245331 488.640467 97.1283987 490.853112 94.5125285 492.977251 90.3043894 495.189896 86.3237173 497.314035 82.1155783 499.526679 77.9074392 501.650818 75.6327695 503.774957 74.4954346 505.987602 72.1070313 508.111741 67.6714253 510.324386 63.8044867 512.448525 59.8238146 514.661169 55.2744751 516.785308 52.8860719 518.909447 52.203671 521.122092 49.9290012 523.246231 46.858197 525.458876 43.1049919 527.583015 39.5792538 529.79566 35.8260487 531.919799 33.7788459 534.043937 32.1865771 536.256582 30.3668413 538.380721 29.5707069 540.593366 27.7509711 542.717505 22.8604311 544.93015 18.652292 547.054289 15.9226883 549.178428 14.8990869 551.391072 12.8518841 553.515211 8.98494554 555.727856 4.89053998 557.851995 2.72960371 560.06464 0"></polyline>
                    </g>
                    <g>
                        <polyline stroke="#FFFFFF" stroke-width="2.5" points="0 400.910545 2.21264475 400.683078 4.33678372 400.569344 6.54942847 400.569344 8.67356743 400.569344 10.8862122 400.569344 13.0103511 400.341877 15.1344901 400.341877 17.3471349 400.228144 19.4712738 400.000677 21.6839186 399.659477 26.0207023 399.545743 30.2689802 399.204543 32.481625 398.749609 36.8184087 398.408408 38.9425476 398.067208 41.1551924 398.067208 43.2793314 397.953474 45.4034703 397.839741 47.6161151 397.726007 49.740254 397.49854 51.9528988 397.271073 54.0770378 397.271073 56.2896825 397.271073 58.4138215 397.271073 60.5379604 397.271073 62.7506052 397.15734 64.8747441 396.929873 67.0873889 396.816139 69.2115279 396.816139 71.4241726 396.816139 73.5483116 396.816139 75.6724505 396.702406 77.8850953 396.702406 80.0092343 396.474939 82.221879 396.361205 84.346018 396.361205 86.5586627 396.361205 88.6828017 396.247472 90.8069406 396.133738 93.0195854 396.020005 95.1437244 395.792538 99.4805081 395.565071 101.693153 395.565071 103.817292 395.451337 105.941431 395.451337 108.154076 395.337604 110.278214 394.996404 112.490859 394.314003 114.614998 393.859069 116.827643 393.859069 118.951782 393.404135 121.164427 393.062934 123.288566 392.835467 125.412705 392.153066 127.625349 391.584399 129.749488 391.356932 131.962133 391.356932 134.086272 391.129465 136.298917 390.901998 138.423056 390.901998 140.547195 390.560797 142.759839 390.447064 144.883978 390.333331 147.096623 390.333331 149.220762 390.333331 151.433407 390.219597 153.557546 390.219597 155.681685 390.105864 157.89433 390.105864 160.018469 390.105864 162.231113 390.105864 164.355252 389.99213 166.567897 389.764663 168.692036 389.764663 170.816175 389.65093 173.02882 389.537196 175.152959 389.423463 177.365603 389.423463 179.489742 389.309729 181.702387 388.968529 183.826526 388.741062 185.950665 388.399861 188.16331 388.399861 190.287449 388.286128 192.500093 388.286128 194.624232 388.058661 196.836877 387.71746 198.961016 387.489993 201.085155 387.37626 203.2978 387.148793 205.421939 387.148793 207.634584 387.148793 209.758723 386.921326 211.971367 386.921326 214.095506 386.580125 216.219645 386.011458 218.43229 385.556524 220.556429 385.556524 222.769074 385.215324 224.893213 384.305456 227.105857 382.940654 229.229996 382.030786 231.354135 380.893451 233.56678 379.642383 235.690919 378.732515 237.903564 378.618781 240.027703 377.93638 242.240348 376.799045 244.364486 374.97931 246.488625 373.04584 248.70127 371.112371 250.825409 370.543704 253.038054 369.861303 255.162193 368.269034 257.374838 367.472899 259.498977 366.676765 261.623116 365.425697 263.83576 363.947161 265.959899 363.26476 268.172544 362.468626 270.296683 362.127426 272.509328 361.786225 274.633467 360.762624 276.757606 359.625289 278.97025 357.919286 281.094389 356.895685 283.307034 356.554485 285.431173 355.75835 287.643818 355.075949 289.767957 354.393548 291.892096 353.824881 294.104741 353.14248 296.228879 352.801279 298.441524 352.346346 300.565663 351.663945 302.778308 351.095277 304.902447 350.640343 307.026586 350.299143 309.239231 349.503008 311.36337 348.365673 313.576014 347.683273 315.700153 346.432204 317.912798 345.294869 320.036937 344.157534 322.161076 343.133933 324.373721 342.451532 326.49786 342.110332 328.710504 341.996598 330.834643 341.541664 333.047288 340.972997 335.171427 340.404329 337.295566 339.835662 339.508211 339.039527 341.63235 338.47086 343.844995 337.788459 345.969134 337.219792 348.181778 336.423657 350.305917 335.741256 352.430056 333.807787 354.642701 332.329252 356.76684 330.96445 358.979485 330.168315 361.103624 328.121113 363.316268 325.277775 365.440407 323.45804 367.564546 323.003106 369.777191 320.955903 371.90133 320.842169 374.113975 320.500969 376.238114 319.932301 378.450758 319.363634 380.574897 318.794967 382.699036 317.998832 384.911681 316.520297 387.03582 315.382962 389.248465 314.814295 391.372604 313.449493 393.585249 310.151222 395.709388 308.445219 397.833527 307.307884 400.046171 306.056816 402.17031 305.033215 404.382955 304.805748 406.507094 302.986012 408.719739 299.574007 410.843878 296.73067 413.056522 293.659866 415.180661 290.589062 417.3048 288.314392 419.517445 286.722123 421.641584 283.537585 423.854229 278.192111 425.978368 274.325173 428.191013 270.344501 430.315151 266.818763 432.43929 264.430359 434.651935 261.587022 436.776074 257.947551 441.112858 251.692209 443.325503 248.393938 445.449642 244.072065 447.573781 240.773794 449.786425 238.612858 451.910564 237.134322 454.123209 234.063518 456.247348 228.718044 458.459993 222.917636 460.584132 217.685896 462.708271 213.705224 464.920915 210.520686 467.045054 206.08508 469.257699 200.739606 471.381838 194.711731 473.594483 189.025057 475.718622 183.338383 477.842761 179.35771 480.055406 175.263305 482.179544 171.168899 484.392189 164.799824 486.516328 159.45435 488.728973 153.199008 490.853112 148.649669 492.977251 143.872862 495.189896 140.233391 497.314035 133.523115 499.526679 128.860042 501.650818 123.628301 503.863463 118.510294 505.987602 113.278554 508.111741 110.435217 510.324386 109.070415 512.448525 105.772144 514.661169 101.677738 516.785308 96.3322643 518.997953 91.1005238 521.122092 87.4610522 523.246231 84.0490476 525.458876 81.3194439 527.583015 77.1113048 529.79566 71.8795644 531.919799 68.0126258 534.132443 65.510489 536.256582 62.0984844 538.380721 60.1650151 540.593366 58.3452793 542.717505 55.3882086 544.93015 51.52127 547.054289 48.1092654 549.266933 44.1285933 551.391072 40.1479212 553.515211 37.4183175 555.727856 35.3711147 557.851995 33.096445 560.06464 30.4805748 562.188779 27.5235041 564.401423 24.5664334 566.525562 22.8604311 568.649701 20.5857613 570.862346 18.7660255 575.19913 17.0600232 577.323269 14.8990869 579.535914 12.6244172 581.660053 9.4398795 588.120975 5.45920742 590.33362 3.29827115 592.457759 2.27466976 594.670404 0"></polyline>
                        <polyline stroke="#C45267" stroke-width="1.5" points="0 400.910545 2.21264475 400.683078 4.33678372 400.569344 6.54942847 400.569344 8.67356743 400.569344 10.8862122 400.569344 13.0103511 400.341877 15.1344901 400.341877 17.3471349 400.228144 19.4712738 400.000677 21.6839186 399.659477 26.0207023 399.545743 30.2689802 399.204543 32.481625 398.749609 36.8184087 398.408408 38.9425476 398.067208 41.1551924 398.067208 43.2793314 397.953474 45.4034703 397.839741 47.6161151 397.726007 49.740254 397.49854 51.9528988 397.271073 54.0770378 397.271073 56.2896825 397.271073 58.4138215 397.271073 60.5379604 397.271073 62.7506052 397.15734 64.8747441 396.929873 67.0873889 396.816139 69.2115279 396.816139 71.4241726 396.816139 73.5483116 396.816139 75.6724505 396.702406 77.8850953 396.702406 80.0092343 396.474939 82.221879 396.361205 84.346018 396.361205 86.5586627 396.361205 88.6828017 396.247472 90.8069406 396.133738 93.0195854 396.020005 95.1437244 395.792538 99.4805081 395.565071 101.693153 395.565071 103.817292 395.451337 105.941431 395.451337 108.154076 395.337604 110.278214 394.996404 112.490859 394.314003 114.614998 393.859069 116.827643 393.859069 118.951782 393.404135 121.164427 393.062934 123.288566 392.835467 125.412705 392.153066 127.625349 391.584399 129.749488 391.356932 131.962133 391.356932 134.086272 391.129465 136.298917 390.901998 138.423056 390.901998 140.547195 390.560797 142.759839 390.447064 144.883978 390.333331 147.096623 390.333331 149.220762 390.333331 151.433407 390.219597 153.557546 390.219597 155.681685 390.105864 157.89433 390.105864 160.018469 390.105864 162.231113 390.105864 164.355252 389.99213 166.567897 389.764663 168.692036 389.764663 170.816175 389.65093 173.02882 389.537196 175.152959 389.423463 177.365603 389.423463 179.489742 389.309729 181.702387 388.968529 183.826526 388.741062 185.950665 388.399861 188.16331 388.399861 190.287449 388.286128 192.500093 388.286128 194.624232 388.058661 196.836877 387.71746 198.961016 387.489993 201.085155 387.37626 203.2978 387.148793 205.421939 387.148793 207.634584 387.148793 209.758723 386.921326 211.971367 386.921326 214.095506 386.580125 216.219645 386.011458 218.43229 385.556524 220.556429 385.556524 222.769074 385.215324 224.893213 384.305456 227.105857 382.940654 229.229996 382.030786 231.354135 380.893451 233.56678 379.642383 235.690919 378.732515 237.903564 378.618781 240.027703 377.93638 242.240348 376.799045 244.364486 374.97931 246.488625 373.04584 248.70127 371.112371 250.825409 370.543704 253.038054 369.861303 255.162193 368.269034 257.374838 367.472899 259.498977 366.676765 261.623116 365.425697 263.83576 363.947161 265.959899 363.26476 268.172544 362.468626 270.296683 362.127426 272.509328 361.786225 274.633467 360.762624 276.757606 359.625289 278.97025 357.919286 281.094389 356.895685 283.307034 356.554485 285.431173 355.75835 287.643818 355.075949 289.767957 354.393548 291.892096 353.824881 294.104741 353.14248 296.228879 352.801279 298.441524 352.346346 300.565663 351.663945 302.778308 351.095277 304.902447 350.640343 307.026586 350.299143 309.239231 349.503008 311.36337 348.365673 313.576014 347.683273 315.700153 346.432204 317.912798 345.294869 320.036937 344.157534 322.161076 343.133933 324.373721 342.451532 326.49786 342.110332 328.710504 341.996598 330.834643 341.541664 333.047288 340.972997 335.171427 340.404329 337.295566 339.835662 339.508211 339.039527 341.63235 338.47086 343.844995 337.788459 345.969134 337.219792 348.181778 336.423657 350.305917 335.741256 352.430056 333.807787 354.642701 332.329252 356.76684 330.96445 358.979485 330.168315 361.103624 328.121113 363.316268 325.277775 365.440407 323.45804 367.564546 323.003106 369.777191 320.955903 371.90133 320.842169 374.113975 320.500969 376.238114 319.932301 378.450758 319.363634 380.574897 318.794967 382.699036 317.998832 384.911681 316.520297 387.03582 315.382962 389.248465 314.814295 391.372604 313.449493 393.585249 310.151222 395.709388 308.445219 397.833527 307.307884 400.046171 306.056816 402.17031 305.033215 404.382955 304.805748 406.507094 302.986012 408.719739 299.574007 410.843878 296.73067 413.056522 293.659866 415.180661 290.589062 417.3048 288.314392 419.517445 286.722123 421.641584 283.537585 423.854229 278.192111 425.978368 274.325173 428.191013 270.344501 430.315151 266.818763 432.43929 264.430359 434.651935 261.587022 436.776074 257.947551 441.112858 251.692209 443.325503 248.393938 445.449642 244.072065 447.573781 240.773794 449.786425 238.612858 451.910564 237.134322 454.123209 234.063518 456.247348 228.718044 458.459993 222.917636 460.584132 217.685896 462.708271 213.705224 464.920915 210.520686 467.045054 206.08508 469.257699 200.739606 471.381838 194.711731 473.594483 189.025057 475.718622 183.338383 477.842761 179.35771 480.055406 175.263305 482.179544 171.168899 484.392189 164.799824 486.516328 159.45435 488.728973 153.199008 490.853112 148.649669 492.977251 143.872862 495.189896 140.233391 497.314035 133.523115 499.526679 128.860042 501.650818 123.628301 503.863463 118.510294 505.987602 113.278554 508.111741 110.435217 510.324386 109.070415 512.448525 105.772144 514.661169 101.677738 516.785308 96.3322643 518.997953 91.1005238 521.122092 87.4610522 523.246231 84.0490476 525.458876 81.3194439 527.583015 77.1113048 529.79566 71.8795644 531.919799 68.0126258 534.132443 65.510489 536.256582 62.0984844 538.380721 60.1650151 540.593366 58.3452793 542.717505 55.3882086 544.93015 51.52127 547.054289 48.1092654 549.266933 44.1285933 551.391072 40.1479212 553.515211 37.4183175 555.727856 35.3711147 557.851995 33.096445 560.06464 30.4805748 562.188779 27.5235041 564.401423 24.5664334 566.525562 22.8604311 568.649701 20.5857613 570.862346 18.7660255 575.19913 17.0600232 577.323269 14.8990869 579.535914 12.6244172 581.660053 9.4398795 588.120975 5.45920742 590.33362 3.29827115 592.457759 2.27466976 594.670404 0"></polyline>
                    </g>
                </g>
            </g>
            <text id="Jun" fill="#666666" fill-rule="nonzero" font-family="Poppins-Medium, Poppins" font-size="14.4" font-weight="400">
                <tspan x="328.0936" y="442.001493">Jun</tspan>
            </text>
            <text id="May" fill="#666666" fill-rule="nonzero" font-family="Poppins-Medium, Poppins" font-size="14.4" font-weight="400">
                <tspan x="259.0776" y="442.001493">May</tspan>
            </text>
            <text id="Apr" fill="#666666" fill-rule="nonzero" font-family="Poppins-Medium, Poppins" font-size="14.4" font-weight="400">
                <tspan x="196.8352" y="442.001493">Apr</tspan>
            </text>
            <text id="Mar" fill="#666666" fill-rule="nonzero" font-family="Poppins-Medium, Poppins" font-size="14.4" font-weight="400">
                <tspan x="128.5032" y="442.001493">Mar</tspan>
            </text>
            <text id="Feb" fill="#666666" fill-rule="nonzero" font-family="Poppins-Medium, Poppins" font-size="14.4" font-weight="400">
                <tspan x="69.468" y="442.001493">Feb</tspan>
            </text>
            <text id="Jul" fill="#666666" fill-rule="nonzero" font-family="Poppins-Medium, Poppins" font-size="14.4" font-weight="400">
                <tspan x="395.8656" y="442.001493">Jul</tspan>
            </text>
            <text id="Aug" fill="#666666" fill-rule="nonzero" font-family="Poppins-Medium, Poppins" font-size="14.4" font-weight="400">
                <tspan x="459.9272" y="442.001493">Aug</tspan>
            </text>
            <text id="Sep" fill="#666666" fill-rule="nonzero" font-family="Poppins-Medium, Poppins" font-size="14.4" font-weight="400">
                <tspan x="526.8272" y="442.001493">Sep</tspan>
            </text>
            <text id="Oct" fill="#666666" fill-rule="nonzero" font-family="Poppins-Medium, Poppins" font-size="14.4" font-weight="400">
                <tspan x="592.8568" y="442.001493">Oct</tspan>
            </text>
            <text id="Oct-22,-2021" fill="#666666" fill-rule="nonzero" font-family="Poppins-Bold, Poppins" font-size="14.4" font-weight="bold">
                <tspan x="643.596" y="442.001493">Oct 22, 2021</tspan>
            </text>
        </g>
    </g>
</svg>