<?xml version="1.0" encoding="UTF-8"?>
<svg width="1000px" height="1334px" viewBox="0 0 1000 1334" version="1.1" xmlns="http://www.w3.org/2000/svg" xmlns:xlink="http://www.w3.org/1999/xlink">
    <title>svg39</title>
    <g id="svg39" stroke="none" stroke-width="1" fill="none" fill-rule="evenodd">
        <rect id="title-bg" fill="#F7F7F7" x="99" y="10" width="810" height="34"></rect>
        <g id="Group" transform="translate(81.000000, 763.000000)">
            <text id="MAIN-SOCIO-ECONOMIC" font-family="Poppins-Bold, Poppins" font-size="20" font-weight="bold" fill="#000000">
                <tspan x="19" y="21">MAIN SOCIO-ECONOMIC IMPACTS</tspan>
            </text>
            <text id="The-main-impacts-men" font-family="Poppins-Regular, Poppins" font-size="20" font-weight="normal" line-spacing="32" fill="#000000">
                <tspan x="19" y="84">The main impacts mentioned by participants noticing a change are reduced </tspan>
                <tspan x="19" y="116">income (78%), loss of job or household income (52%), increased living costs </tspan>
                <tspan x="19" y="148">(46%), inability to purchase basic necessities (food, medicine, etc.) (27%) and </tspan>
                <tspan x="19" y="180">loss of housing (19%).</tspan>
            </text>
            <g id="Group-3" transform="translate(0.000000, 237.000000)" fill-rule="nonzero">
                <text id="Reduced-Income" font-family="Poppins-Regular, Poppins" font-size="15" font-weight="normal" fill="#000000">
                    <tspan x="140.545" y="18.6373344">Reduced Income</tspan>
                </text>
                <text id="Loss-Of-Income" font-family="Poppins-Regular, Poppins" font-size="15" font-weight="normal" fill="#000000">
                    <tspan x="154.779999" y="51.610662">Loss Of Income</tspan>
                </text>
                <text id="Increased-Living-Costs" font-family="Poppins-Regular, Poppins" font-size="15" font-weight="normal" fill="#000000">
                    <tspan x="100.974999" y="84.5839896">Increased Living Costs</tspan>
                </text>
                <text id="Inability-To-Purchase-Basic-Needs" font-family="Poppins-Regular, Poppins" font-size="15" font-weight="normal" fill="#000000">
                    <tspan x="18.7899997" y="117.557317">Inability To Purchase Basic Needs</tspan>
                </text>
                <text id="Loss-Of-A-Living-Space" font-family="Poppins-Regular, Poppins" font-size="15" font-weight="normal" fill="#000000">
                    <tspan x="103.899999" y="150.530645">Loss Of A Living Space</tspan>
                </text>
                <text id="Inability-To-Get-Basic-Healthcare" font-family="Poppins-Regular, Poppins" font-size="15" font-weight="normal" fill="#000000">
                    <tspan x="26.6199996" y="184.176897">Inability To Get Basic Healthcare</tspan>
                </text>
                <text id="Inability-Meet-Food-Needs" font-family="Poppins-Regular, Poppins" font-size="15" font-weight="normal" fill="#000000">
                    <tspan x="76.4499999" y="217.150225">Inability Meet Food Needs</tspan>
                </text>
                <text id="Inability-Access-Healthcare" font-family="Poppins-Regular, Poppins" font-size="15" font-weight="normal" fill="#000000">
                    <tspan x="65.4549992" y="250.123553">Inability Access Healthcare</tspan>
                </text>
                <rect id="Rectangle" fill="#668490" x="280.150998" y="0" width="518.618615" height="25.9200761"></rect>
                <rect id="Rectangle" fill="#668490" x="280.150998" y="33.0114177" width="345.987084" height="25.9200761"></rect>
                <rect id="Rectangle" fill="#668490" x="280.150998" y="66.0228354" width="307.447152" height="25.9200761"></rect>
                <rect id="Rectangle" fill="#668490" x="280.150998" y="99.0342531" width="182.249384" height="25.9200761"></rect>
                <rect id="Rectangle" fill="#668490" x="280.150998" y="132.045671" width="129.114449" height="25.9200761"></rect>
                <rect id="Rectangle" fill="#668490" x="280.150998" y="165.057088" width="87.1538123" height="25.9200761"></rect>
                <rect id="Rectangle" fill="#668490" x="280.150998" y="198.068506" width="28.54575" height="25.9200761"></rect>
                <rect id="Rectangle" fill="#668490" x="280.150998" y="231.079924" width="15.5470745" height="25.9200761"></rect>
                <text id="78%" font-family="Poppins-Regular, Poppins" font-size="12" font-weight="normal" fill="#FFFFFF">
                    <tspan x="767.27252" y="16.6458822">78%</tspan>
                </text>
                <text id="52%" font-family="Poppins-Regular, Poppins" font-size="12" font-weight="normal" fill="#FFFFFF">
                    <tspan x="597.64099" y="50.6572999">52%</tspan>
                </text>
                <text id="46%" font-family="Poppins-Regular, Poppins" font-size="12" font-weight="normal" fill="#FFFFFF">
                    <tspan x="556.975613" y="83.6687176">46%</tspan>
                </text>
                <text id="27%" font-family="Poppins-Regular, Poppins" font-size="12" font-weight="normal" fill="#FFFFFF">
                    <tspan x="433.770725" y="116.680135">27%</tspan>
                </text>
                <text id="19%" font-family="Poppins-Regular, Poppins" font-size="12" font-weight="normal" fill="#FFFFFF">
                    <tspan x="383.338311" y="149.691553">19%</tspan>
                </text>
                <text id="13%" font-family="Poppins-Regular, Poppins" font-size="12" font-weight="normal" fill="#FFFFFF">
                    <tspan x="343.377675" y="182.702971">13%</tspan>
                </text>
                <text id="4%" font-family="Poppins-Regular, Poppins" font-size="12" font-weight="normal" fill="#FFFFFF">
                    <tspan x="286.769612" y="215.714388">4%</tspan>
                </text>
                <text id="2%" font-family="Poppins-Regular, Poppins" font-size="12" font-weight="normal" fill="#000000">
                    <tspan x="301.906424" y="248.725806">2%</tspan>
                </text>
            </g>
        </g>
        <text id="Socio-economic-impac" font-family="Poppins-Bold, Poppins" font-size="28" font-weight="bold" fill="#000000">
            <tspan x="122" y="36">Socio-economic impacts of COVID-19</tspan>
        </text>
        <g id="main_findings" transform="translate(99.000000, 82.000000)">
            <rect id="Rectangle" fill="#F5333F" x="0" y="0" width="810" height="331" rx="20"></rect>
            <path d="M20,0 L790,0 C801.045695,-2.02906125e-15 810,8.954305 810,20 L810,48 L810,48 L0,48 L0,20 C-1.3527075e-15,8.954305 8.954305,9.13448861e-15 20,0 Z" id="Rectangle" fill="#668490"></path>
            <g id="finding" transform="translate(23.000000, 67.000000)" fill="#FFFFFF">
                <text id="Health-and-socio-eco" font-family="Poppins-SemiBold, Poppins" font-size="18" font-weight="500">
                    <tspan x="26" y="19">Health and socio-economic impact are the main worries in communities.</tspan>
                </text>
                <rect id="Rectangle" x="0" y="8" width="12" height="12"></rect>
            </g>
            <text id="MAIN-FINDINGS" font-family="Poppins-Bold, Poppins" font-size="22" font-weight="bold" fill="#FFFFFF">
                <tspan x="49" y="32">MAIN FINDINGS</tspan>
            </text>
            <path d="M41,16.5564292 C40.9977759,12.9343747 38.3066064,10 34.9872957,10 C31.8755033,10 29.3472658,12.5863032 29.0359365,15.8894566 L16.7840784,15.8894566 C15.8033318,15.8882717 15,16.7645725 15,17.8343467 L15,31.8977017 C15,32.9699585 15.8033318,33.8438331 16.7840784,33.8438331 L29.6763882,33.8438331 C30.6593589,33.8438331 31.4649149,32.9699585 31.4649149,31.8977017 L31.4649149,21.8482567 C32.2024016,22.4324572 33.0637682,22.8365001 33.9998767,23.0057118 L34.025532,24.5319455 L33.1663895,24.8459377 L33.1663895,33.2304056 C33.1663895,33.2304056 33.9920145,34.1553992 35.0742962,34.0750533 C36.1543536,33.9959487 36.8037019,33.2328318 36.8037019,33.2328318 L36.8048398,24.8471226 L36.0026459,24.6317008 L35.9792147,23.0056553 C38.8254023,22.4848175 40.9977759,19.8060375 41,16.5564292 Z M34.9861578,21.6060905 C32.4322132,21.6060905 30.3592022,19.3447256 30.3592022,16.5551879 C30.3592022,13.7656502 32.429989,11.5079483 34.9883819,11.5079483 C37.5422748,11.5042853 39.6153375,13.7644089 39.6175616,16.5588554 C39.6153892,19.3459669 37.5467748,21.6060905 34.9861578,21.6060905 Z M28.385502,29.9881323 L18.0749646,29.9881323 L18.0749646,28.7077886 L28.385502,28.7077886 L28.385502,29.9881323 Z M28.385502,25.508058 L18.0749646,25.508058 L18.0749646,24.2252317 L28.385502,24.2252317 L28.385502,25.508058 Z M28.385502,21.029225 L18.0749646,21.029225 L18.0749646,19.7463987 L28.385502,19.7463987 L28.385502,21.029225 Z" id="Shape" fill="#FFFFFF" fill-rule="nonzero" opacity="0.727767218"></path>
            <g id="finding" transform="translate(23.000000, 117.000000)" fill="#FFFFFF">
                <text id="Among-all-participan" font-family="Poppins-SemiBold, Poppins" font-size="18" font-weight="500">
                    <tspan x="26" y="19">Among all participants, pregnant and lactating women have expressed the </tspan>
                    <tspan x="26" y="44">highest concern in general.</tspan>
                </text>
                <rect id="Rectangle" x="0" y="8" width="12" height="12"></rect>
            </g>
            <g id="finding" transform="translate(23.000000, 75.000000)" fill="#FFFFFF">
                <rect id="Rectangle" x="0" y="0" width="12" height="12"></rect>
            </g>
            <g id="finding" transform="translate(23.000000, 125.000000)" fill="#FFFFFF">
                <rect id="Rectangle" x="0" y="0" width="12" height="12"></rect>
            </g>
            <g id="finding" transform="translate(23.000000, 193.000000)" fill="#FFFFFF">
                <text id="The-pandemic-widely" font-family="Poppins-SemiBold, Poppins" font-size="18" font-weight="500">
                    <tspan x="26" y="19">The pandemic widely affected economies and housing conditions, with the </tspan>
                    <tspan x="26" y="44">bigger toll on the most vulnerable. Indigenous respondents suffer severe socio-</tspan>
                    <tspan x="26" y="69">economic impacts.  Eighty seven percent report a reduced income, increased </tspan>
                    <tspan x="26" y="94">living costs and the inability to get basic healthcare.</tspan>
                </text>
                <rect id="Rectangle" x="0" y="8" width="12" height="12"></rect>
            </g>
        </g>
        <g id="scroll_down_g" transform="translate(225.000000, 510.000000)">
            <rect id="Rectangle" fill="#FFFFFF" opacity="0.534372239" x="0" y="4" width="564" height="74"></rect>
            <g id="scroll_down" transform="translate(13.000000, 0.000000)">
                <text id="To-see-detailed-fact" font-family="Poppins-SemiBold, Poppins" font-size="18" font-weight="500" fill="#000000">
                    <tspan x="0" y="19">To see detailed facts and figures, continue to scroll down</tspan>
                </text>
                <polyline id="Path-10" stroke="#717171" stroke-width="5" stroke-linecap="round" points="216.954894 51.7016895 263.260238 76.7016895 309.565581 51.7016895"></polyline>
                <polyline id="Path-10" stroke="#717171" stroke-width="3" stroke-linecap="round" points="216.954894 60.7016895 263.260238 85.7016895 309.565581 60.7016895"></polyline>
                <polyline id="Path-10" stroke="#717171" stroke-width="3" stroke-linecap="round" points="216.954894 60.7016895 263.260238 85.7016895 309.565581 60.7016895"></polyline>
            </g>
        </g>
        <rect id="Rectangle" fill="#F5333F" x="100" y="12" width="13" height="30"></rect>
    </g>
</svg>